<?xml version="1.0" encoding="UTF-8"?>
<!DOCTYPE svg PUBLIC "-//W3C//DTD SVG 1.1//EN" "http://www.w3.org/Graphics/SVG/1.1/DTD/svg11.dtd">
<!-- Creator: CorelDRAW 2018 (64 Bit) -->
<svg xmlns="http://www.w3.org/2000/svg" xml:space="preserve" width="1280px" height="661px" version="1.1" style="shape-rendering:geometricPrecision; text-rendering:geometricPrecision; image-rendering:optimizeQuality; fill-rule:evenodd; clip-rule:evenodd"
viewBox="0 0 1280 661"
 xmlns:xlink="http://www.w3.org/1999/xlink">
 <defs>
  <style type="text/css">
   <![CDATA[
    .fil5 {fill:lime}
    .fil1 {fill:lime;fill-opacity:0.501961}
    .fil4 {fill:url(#id0);fill-rule:nonzero}
    .fil3 {fill:url(#id1);fill-rule:nonzero}
    .fil0 {fill:url(#id2);fill-rule:nonzero}
    .fil2 {fill:url(#id3);fill-rule:nonzero}
   ]]>
  </style>
  <linearGradient id="id0" gradientUnits="userSpaceOnUse" x1="526.12" y1="30.56" x2="954.12" y2="622.17">
   <stop offset="0" style="stop-opacity:1; stop-color:#D47CD4"/>
   <stop offset="1" style="stop-opacity:1; stop-color:#5133FF"/>
  </linearGradient>
  <linearGradient id="id1" gradientUnits="userSpaceOnUse" xlink:href="#id0" x1="272" y1="28.13" x2="698.36" y2="624.6">
  </linearGradient>
  <linearGradient id="id2" gradientUnits="userSpaceOnUse" xlink:href="#id0" x1="863.02" y1="128.11" x2="1130.4" y2="682.51">
  </linearGradient>
  <linearGradient id="id3" gradientUnits="userSpaceOnUse" xlink:href="#id0" x1="0" y1="-0.17" x2="402.59" y2="652.9">
  </linearGradient>
 </defs>
 <g id="Camada_x0020_1">
  <metadata id="CorelCorpID_0Corel-Layer"/>
  <g id="_2327950104384">
   <polygon class="fil0" points="994.24,441.27 923.14,652.9 801.62,652.9 910.74,390.02 910.74,157.72 1030.61,157.72 1020.69,328.85 1077.73,157.72 1191.81,157.72 1097.57,390.02 1097.57,652.9 976.05,652.9 "/>
   <polygon class="fil1" points="1198.76,150.71 1074.76,150.71 1074.76,167.24 1066.5,167.24 1066.5,192.04 1058.23,192.04 1058.23,216.84 1049.96,216.84 1049.96,241.64 1041.7,241.64 1041.7,266.44 1033.43,266.44 1033.43,291.24 1025.16,291.24 1025.16,249.91 1033.43,249.91 1033.43,150.71 909.43,150.71 909.43,390.44 901.16,390.44 901.16,415.25 892.9,415.25 892.9,431.78 884.63,431.78 884.63,456.58 876.37,456.58 876.37,473.11 868.1,473.11 868.1,489.65 859.83,489.65 859.83,514.45 851.57,514.45 851.57,530.98 843.3,530.98 843.3,555.78 835.03,555.78 835.03,572.31 826.77,572.31 826.77,588.85 818.5,588.85 818.5,613.65 810.23,613.65 810.23,630.18 801.97,630.18 801.97,654.98 925.96,654.98 925.96,646.71 934.23,646.71 934.23,621.91 942.5,621.91 942.5,597.11 950.76,597.11 950.76,572.31 959.03,572.31 959.03,547.51 967.3,547.51 967.3,522.71 975.56,522.71 975.56,497.91 983.83,497.91 983.83,564.05 975.56,564.05 975.56,654.98 1099.56,654.98 1099.56,382.18 1107.83,382.18 1107.83,365.64 1116.09,365.64 1116.09,340.84 1124.36,340.84 1124.36,324.31 1132.63,324.31 1132.63,299.51 1140.89,299.51 1140.89,282.98 1149.16,282.98 1149.16,266.44 1157.43,266.44 1157.43,241.64 1165.69,241.64 1165.69,225.11 1173.96,225.11 1173.96,200.31 1182.23,200.31 1182.23,183.78 1190.49,183.78 1190.49,158.98 1198.76,158.98 "/>
   <polygon class="fil2" points="402.59,-0.17 194.27,652.9 0,652.9 77.71,-0.17 214.93,-0.17 133.09,485.09 136.4,485.09 264.53,-0.17 "/>
   <polygon class="fil3" points="311.58,652.9 449.63,-0.17 658.78,-0.17 635.63,109.78 560.4,109.78 550.48,157.72 622.4,157.72 599.26,267.67 527.34,267.67 445.5,652.9 "/>
   <polygon class="fil4" points="774.43,652.9 568.59,652.9 706.64,-0.17 911.65,-0.17 888.51,109.78 817.41,109.78 807.49,157.72 875.28,157.72 852.96,263.54 785.17,263.54 726.48,537.99 798.4,537.99 "/>
   <path class="fil5" d="M1261 142.43c5.18,0 9.95,2.14 13.41,5.6 3.44,3.4 5.59,8.16 5.59,13.4l0 20.06c0,5.23 -2.15,9.99 -5.57,13.42 -3.43,3.43 -8.2,5.58 -13.43,5.58l-32.49 0c-5.92,0.07 -11.27,2.49 -15.11,6.33 -3.88,3.88 -6.3,9.23 -6.37,15.15l0 414.4c0,6.83 -2.8,13.04 -7.28,17.52 -4.48,4.48 -10.69,7.28 -17.52,7.28l-364.08 0c-6.84,0 -13.05,-2.8 -17.53,-7.28 -4.48,-4.48 -7.27,-10.69 -7.27,-17.52l0 -469.14c0,-6.83 2.79,-13.04 7.27,-17.52 4.48,-4.49 10.69,-7.28 17.53,-7.28 147.62,0 295.23,0 442.85,0zm-33.63 41.21l-5.81 0 0 -20.04 -6.87 0 0 -4.44 19.83 0 -0.6 4.44 -6.55 0 0 20.04zm28.31 0l-5.05 0 -0.31 -10.47c-0.02,-1.11 -0.03,-1.87 -0.03,-2.29 0,-1.07 0.02,-2.06 0.07,-2.94 0.05,-0.87 0.13,-2.03 0.23,-3.48l0.04 -0.37 -2.76 15.38 -4.38 0 -2.96 -15.38c0.12,1.36 0.21,2.58 0.26,3.63 0.06,1.05 0.09,2.23 0.09,3.52 0,0.86 -0.01,1.54 -0.02,2.02l-0.18 10.38 -4.96 0 1.38 -24.48 5.95 0 2.72 15.82 2.58 -15.82 5.95 0 1.38 24.48zm-65.19 -24.67l-372.34 0c-2.27,0 -4.34,0.94 -5.83,2.43 -1.49,1.5 -2.43,3.57 -2.43,5.83l0 469.14c0,2.26 0.94,4.33 2.43,5.83 1.49,1.49 3.56,2.43 5.83,2.43l364.08 0c2.26,0 4.33,-0.94 5.83,-2.43 1.49,-1.5 2.43,-3.57 2.43,-5.83 0,-159.13 0,-318.27 0,-477.4z"/>
  </g>
 </g>
</svg>
