<?xml version="1.0" encoding="UTF-8"?>
<!DOCTYPE svg PUBLIC "-//W3C//DTD SVG 1.1//EN" "http://www.w3.org/Graphics/SVG/1.1/DTD/svg11.dtd">
<!-- Creator: CorelDRAW 2018 (64 Bit) -->
<svg xmlns="http://www.w3.org/2000/svg" xml:space="preserve" width="1280px" height="515px" version="1.1" style="shape-rendering:geometricPrecision; text-rendering:geometricPrecision; image-rendering:optimizeQuality; fill-rule:evenodd; clip-rule:evenodd"
viewBox="0 0 1280 515"
 xmlns:xlink="http://www.w3.org/1999/xlink">
 <defs>
  <style type="text/css">
   <![CDATA[
    .fil6 {fill:#4D4D4D}
    .fil4 {fill:#4D4D4D}
    .fil1 {fill:#CCCCCC}
    .fil0 {fill:#FF9966}
    .fil5 {fill:#FF9966}
    .fil2 {fill:#4D4D4D;fill-rule:nonzero}
    .fil7 {fill:#4D4D4D;fill-rule:nonzero}
    .fil3 {fill:#FF9966;fill-rule:nonzero}
   ]]>
  </style>
 </defs>
 <g id="Camada_x0020_1">
  <metadata id="CorelCorpID_0Corel-Layer"/>
  <g id="_2288764520944">
   <g>
    <g>
     <g>
      <path class="fil0" d="M463.17 438.36l0 -28.59c0,-10.47 8.57,-19.05 19.05,-19.05l57.17 0c10.48,0 19.05,8.58 19.05,19.05l0 28.59 -5.08 0 0 -28.59c0,-3.83 -1.57,-7.32 -4.11,-9.86 -2.53,-2.53 -6.02,-4.11 -9.86,-4.11l-57.17 0c-3.83,0 -7.33,1.58 -9.86,4.11 -2.54,2.54 -4.11,6.03 -4.11,9.86l0 28.59 -5.08 0z"/>
      <path class="fil0" d="M463.17 358.96l0 -57.16c0,-10.48 8.57,-19.06 19.05,-19.06l57.17 0c10.48,0 19.05,8.58 19.05,19.06l0 57.16c0,10.48 -8.57,19.06 -19.05,19.06l-57.17 0c-10.48,0 -19.05,-8.58 -19.05,-19.06zm5.08 -57.16l0 57.16c0,3.85 1.57,7.35 4.09,9.87l0.02 0.02c2.52,2.52 6.01,4.09 9.86,4.09l57.17 0c3.85,0 7.34,-1.57 9.86,-4.09l0.02 -0.02c2.53,-2.52 4.09,-6.02 4.09,-9.87l0 -57.16c0,-3.84 -1.57,-7.33 -4.11,-9.87 -2.53,-2.53 -6.02,-4.11 -9.86,-4.11l-57.17 0c-3.83,0 -7.33,1.58 -9.86,4.11 -2.54,2.54 -4.11,6.03 -4.11,9.87z"/>
      <path class="fil0" d="M463.17 250.98l0 -57.16c0,-10.48 8.57,-19.06 19.05,-19.06l57.17 0c10.48,0 19.05,8.58 19.05,19.06l0 57.16c0,10.48 -8.57,19.06 -19.05,19.06l-57.17 0c-10.48,0 -19.05,-8.58 -19.05,-19.06zm5.08 -57.16l0 57.16c0,3.85 1.57,7.35 4.09,9.87l0.02 0.02c2.52,2.52 6.01,4.09 9.86,4.09l57.17 0c3.85,0 7.34,-1.57 9.86,-4.09l0.02 -0.02c2.53,-2.52 4.09,-6.02 4.09,-9.87l0 -57.16c0,-3.84 -1.57,-7.33 -4.11,-9.87 -2.53,-2.53 -6.02,-4.11 -9.86,-4.11l-57.17 0c-3.83,0 -7.33,1.58 -9.86,4.11 -2.54,2.54 -4.11,6.03 -4.11,9.87z"/>
      <path class="fil0" d="M463.17 143l0 -57.16c0,-10.48 8.57,-19.06 19.05,-19.06l57.17 0c10.48,0 19.05,8.58 19.05,19.06l0 57.16c0,10.48 -8.57,19.06 -19.05,19.06l-57.17 0c-10.48,0 -19.05,-8.58 -19.05,-19.06zm5.08 -57.16l0 57.16c0,3.85 1.57,7.35 4.09,9.87l0.02 0.02c2.52,2.52 6.01,4.09 9.86,4.09l57.17 0c3.85,0 7.34,-1.57 9.86,-4.09l0.02 -0.02c2.53,-2.52 4.09,-6.02 4.09,-9.87l0 -57.16c0,-3.84 -1.57,-7.33 -4.11,-9.87 -2.53,-2.53 -6.02,-4.11 -9.86,-4.11l-57.17 0c-3.83,0 -7.33,1.58 -9.86,4.11 -2.54,2.54 -4.11,6.03 -4.11,9.87z"/>
      <path class="fil0" d="M463.17 35.02l0 -28.58 5.08 0 0 28.58c0,3.85 1.57,7.35 4.09,9.87l0.02 0.02c2.52,2.52 6.01,4.09 9.86,4.09l57.17 0c3.85,0 7.34,-1.57 9.86,-4.09l0.02 -0.02c2.53,-2.52 4.09,-6.02 4.09,-9.87l0 -28.58 5.08 0 0 28.58c0,10.48 -8.57,19.06 -19.05,19.06l-57.17 0c-10.48,0 -19.05,-8.58 -19.05,-19.06z"/>
     </g>
     <g>
      <path class="fil1" d="M418.71 438.36l0 -3.18c0,-3.49 2.85,-6.35 6.35,-6.35l19.05 0c3.5,0 6.35,2.86 6.35,6.35l0 3.18 -31.75 0z"/>
      <path class="fil1" d="M418.71 409.78l0 -19.06c0,-3.49 2.85,-6.35 6.35,-6.35l19.05 0c3.5,0 6.35,2.86 6.35,6.35l0 19.06c0,3.49 -2.85,6.35 -6.35,6.35l-19.05 0c-3.5,0 -6.35,-2.86 -6.35,-6.35z"/>
      <path class="fil1" d="M418.71 365.32l0 -19.06c0,-3.49 2.85,-6.35 6.35,-6.35l19.05 0c3.5,0 6.35,2.86 6.35,6.35l0 19.06c0,3.49 -2.85,6.35 -6.35,6.35l-19.05 0c-3.5,0 -6.35,-2.86 -6.35,-6.35z"/>
      <path class="fil1" d="M418.71 320.85l0 -19.05c0,-3.5 2.85,-6.35 6.35,-6.35l19.05 0c3.5,0 6.35,2.85 6.35,6.35l0 19.05c0,3.5 -2.85,6.36 -6.35,6.36l-19.05 0c-3.5,0 -6.35,-2.86 -6.35,-6.36z"/>
      <path class="fil1" d="M418.71 276.39l0 -19.05c0,-3.5 2.85,-6.36 6.35,-6.36l19.05 0c3.5,0 6.35,2.86 6.35,6.36l0 19.05c0,3.5 -2.85,6.35 -6.35,6.35l-19.05 0c-3.5,0 -6.35,-2.85 -6.35,-6.35z"/>
      <path class="fil1" d="M418.71 231.93l0 -19.05c0,-3.5 2.85,-6.36 6.35,-6.36l19.05 0c3.5,0 6.35,2.86 6.35,6.36l0 19.05c0,3.49 -2.85,6.35 -6.35,6.35l-19.05 0c-3.5,0 -6.35,-2.86 -6.35,-6.35z"/>
      <path class="fil1" d="M418.71 187.47l0 -19.06c0,-3.49 2.85,-6.35 6.35,-6.35l19.05 0c3.5,0 6.35,2.86 6.35,6.35l0 19.06c0,3.49 -2.85,6.35 -6.35,6.35l-19.05 0c-3.5,0 -6.35,-2.86 -6.35,-6.35z"/>
      <path class="fil1" d="M418.71 143.01l0 -19.06c0,-3.49 2.85,-6.35 6.35,-6.35l19.05 0c3.5,0 6.35,2.86 6.35,6.35l0 19.06c0,3.49 -2.85,6.35 -6.35,6.35l-19.05 0c-3.5,0 -6.35,-2.86 -6.35,-6.35z"/>
      <path class="fil1" d="M418.71 98.55l0 -19.06c0,-3.49 2.85,-6.35 6.35,-6.35l19.05 0c3.5,0 6.35,2.86 6.35,6.35l0 19.06c0,3.49 -2.85,6.35 -6.35,6.35l-19.05 0c-3.5,0 -6.35,-2.86 -6.35,-6.35z"/>
      <path class="fil1" d="M418.71 54.08l0 -19.05c0,-3.5 2.85,-6.35 6.35,-6.35l19.05 0c3.5,0 6.35,2.85 6.35,6.35l0 19.05c0,3.5 -2.85,6.35 -6.35,6.35l-19.05 0c-3.5,0 -6.35,-2.85 -6.35,-6.35z"/>
      <path class="fil1" d="M418.71 9.62l0 -3.18 31.75 0 0 3.18c0,3.49 -2.85,6.35 -6.35,6.35l-19.05 0c-3.5,0 -6.35,-2.86 -6.35,-6.35z"/>
     </g>
     <g>
      <path class="fil1" d="M571.15 438.36l0 -3.18c0,-3.49 2.85,-6.35 6.35,-6.35l19.06 0c3.49,0 6.35,2.86 6.35,6.35l0 3.18 -31.76 0z"/>
      <path class="fil1" d="M571.15 409.78l0 -19.06c0,-3.49 2.85,-6.35 6.35,-6.35l19.06 0c3.49,0 6.35,2.86 6.35,6.35l0 19.06c0,3.49 -2.86,6.35 -6.35,6.35l-19.06 0c-3.5,0 -6.35,-2.86 -6.35,-6.35z"/>
      <path class="fil1" d="M571.15 365.32l0 -19.06c0,-3.49 2.85,-6.35 6.35,-6.35l19.06 0c3.49,0 6.35,2.86 6.35,6.35l0 19.06c0,3.49 -2.86,6.35 -6.35,6.35l-19.06 0c-3.5,0 -6.35,-2.86 -6.35,-6.35z"/>
      <path class="fil1" d="M571.15 320.85l0 -19.05c0,-3.5 2.85,-6.35 6.35,-6.35l19.06 0c3.49,0 6.35,2.85 6.35,6.35l0 19.05c0,3.5 -2.86,6.36 -6.35,6.36l-19.06 0c-3.5,0 -6.35,-2.86 -6.35,-6.36z"/>
      <path class="fil1" d="M571.15 276.39l0 -19.05c0,-3.5 2.85,-6.36 6.35,-6.36l19.06 0c3.49,0 6.35,2.86 6.35,6.36l0 19.05c0,3.5 -2.86,6.35 -6.35,6.35l-19.06 0c-3.5,0 -6.35,-2.85 -6.35,-6.35z"/>
      <path class="fil1" d="M571.15 231.93l0 -19.05c0,-3.5 2.85,-6.36 6.35,-6.36l19.06 0c3.49,0 6.35,2.86 6.35,6.36l0 19.05c0,3.49 -2.86,6.35 -6.35,6.35l-19.06 0c-3.5,0 -6.35,-2.86 -6.35,-6.35z"/>
      <path class="fil1" d="M571.15 187.47l0 -19.06c0,-3.49 2.85,-6.35 6.35,-6.35l19.06 0c3.49,0 6.35,2.86 6.35,6.35l0 19.06c0,3.49 -2.86,6.35 -6.35,6.35l-19.06 0c-3.5,0 -6.35,-2.86 -6.35,-6.35z"/>
      <path class="fil1" d="M571.15 143.01l0 -19.06c0,-3.49 2.85,-6.35 6.35,-6.35l19.06 0c3.49,0 6.35,2.86 6.35,6.35l0 19.06c0,3.49 -2.86,6.35 -6.35,6.35l-19.06 0c-3.5,0 -6.35,-2.86 -6.35,-6.35z"/>
      <path class="fil1" d="M571.15 98.55l0 -19.06c0,-3.49 2.85,-6.35 6.35,-6.35l19.06 0c3.49,0 6.35,2.86 6.35,6.35l0 19.06c0,3.49 -2.86,6.35 -6.35,6.35l-19.06 0c-3.5,0 -6.35,-2.86 -6.35,-6.35z"/>
      <path class="fil1" d="M571.15 54.08l0 -19.05c0,-3.5 2.85,-6.35 6.35,-6.35l19.06 0c3.49,0 6.35,2.85 6.35,6.35l0 19.05c0,3.5 -2.86,6.35 -6.35,6.35l-19.06 0c-3.5,0 -6.35,-2.85 -6.35,-6.35z"/>
      <path class="fil1" d="M571.15 9.62l0 -3.18 31.76 0 0 3.18c0,3.49 -2.86,6.35 -6.35,6.35l-19.06 0c-3.5,0 -6.35,-2.86 -6.35,-6.35z"/>
     </g>
    </g>
    <polygon class="fil2" points="378.96,495.74 387.75,495.74 387.75,498.02 378.96,498.02 378.96,508 376.15,508 376.15,485.57 389.36,485.57 389.02,487.89 378.96,487.89 "/>
    <path id="1" class="fil2" d="M404.08 490.48c0.45,0 0.86,0.03 1.23,0.09 0.37,0.05 0.77,0.15 1.2,0.28l-0.39 5.8 -2.25 0 0 -3.65 -0.15 0c-1.32,0 -2.45,0.47 -3.38,1.4 -0.94,0.93 -1.69,2.35 -2.26,4.24l0 7.26 3.48 0 0 2.1 -8.89 0 0 -2.1 2.67 0 0 -12.95 -2.67 0 0 -2.1 4.75 0 0.51 4.06c0.69,-1.49 1.52,-2.6 2.48,-3.33 0.96,-0.74 2.19,-1.1 3.67,-1.1z"/>
    <path id="2" class="fil2" d="M422.37 504.25c0,0.68 0.11,1.17 0.33,1.5 0.21,0.31 0.57,0.55 1.07,0.7l-0.66 1.93c-1.66,-0.22 -2.7,-1.03 -3.15,-2.42 -0.61,0.8 -1.38,1.39 -2.3,1.8 -0.93,0.41 -1.96,0.62 -3.07,0.62 -1.13,0 -2.11,-0.22 -2.95,-0.65 -0.84,-0.44 -1.48,-1.06 -1.92,-1.86 -0.45,-0.79 -0.67,-1.72 -0.67,-2.79 0,-1.77 0.69,-3.12 2.07,-4.07 1.38,-0.94 3.37,-1.42 5.98,-1.42l2.52 0 0 -1.43c0,-1.2 -0.35,-2.06 -1.04,-2.6 -0.7,-0.53 -1.72,-0.8 -3.05,-0.8 -1.29,0 -2.78,0.29 -4.46,0.88l-0.72 -2.07c1.91,-0.72 3.78,-1.08 5.6,-1.08 2.1,0 3.69,0.49 4.78,1.48 1.09,0.98 1.64,2.33 1.64,4.06l0 8.22zm-7.08 2.04c0.84,0 1.65,-0.22 2.42,-0.64 0.76,-0.43 1.4,-1.03 1.91,-1.79l0 -4.41 -2.48 0c-1.81,0 -3.12,0.31 -3.94,0.93 -0.81,0.62 -1.22,1.51 -1.22,2.67 0,2.16 1.11,3.24 3.31,3.24z"/>
    <path id="3" class="fil2" d="M438.98 490.49c0.98,0 1.78,0.34 2.4,1.02 0.62,0.68 0.93,1.92 0.93,3.72l0 12.77 -2.54 0 0 -12.33c0,-0.81 -0.04,-1.42 -0.09,-1.83 -0.05,-0.41 -0.17,-0.71 -0.35,-0.91 -0.19,-0.21 -0.48,-0.31 -0.89,-0.31 -1.11,0 -2.11,0.69 -2.99,2.06l0 13.32 -2.56 0 0 -12.33c0,-0.81 -0.03,-1.42 -0.08,-1.83 -0.06,-0.41 -0.17,-0.71 -0.36,-0.91 -0.18,-0.21 -0.47,-0.31 -0.88,-0.31 -1.11,0 -2.11,0.69 -2.99,2.06l0 13.32 -2.53 0 0 -17.15 2.15 0 0.17 1.99c0.51,-0.75 1.07,-1.33 1.66,-1.73 0.58,-0.41 1.27,-0.62 2.06,-0.62 1.62,0 2.66,0.76 3.11,2.27 0.51,-0.74 1.07,-1.31 1.65,-1.69 0.6,-0.38 1.31,-0.58 2.13,-0.58z"/>
    <path id="4" class="fil2" d="M447.42 500.39c0.04,1.29 0.29,2.36 0.75,3.21 0.45,0.85 1.05,1.48 1.79,1.89 0.74,0.4 1.56,0.61 2.47,0.61 0.85,0 1.63,-0.13 2.34,-0.38 0.71,-0.25 1.46,-0.64 2.24,-1.17l1.29 1.8c-0.81,0.64 -1.73,1.13 -2.77,1.49 -1.03,0.36 -2.08,0.54 -3.13,0.54 -1.64,0 -3.05,-0.37 -4.23,-1.11 -1.18,-0.74 -2.08,-1.78 -2.7,-3.13 -0.61,-1.35 -0.92,-2.91 -0.92,-4.69 0,-1.73 0.31,-3.27 0.93,-4.62 0.62,-1.36 1.49,-2.42 2.62,-3.19 1.13,-0.76 2.44,-1.15 3.94,-1.15 1.43,0 2.68,0.34 3.73,1.01 1.04,0.67 1.84,1.64 2.4,2.91 0.57,1.26 0.84,2.76 0.84,4.49 0,0.49 -0.02,1 -0.06,1.49l-11.53 0zm4.66 -7.65c-1.33,0 -2.41,0.47 -3.24,1.39 -0.83,0.93 -1.3,2.31 -1.4,4.15l8.93 0c-0.03,-1.8 -0.42,-3.18 -1.19,-4.12 -0.75,-0.95 -1.79,-1.42 -3.1,-1.42z"/>
    <path id="5" class="fil2" d="M476.73 500.39c0.04,1.29 0.29,2.36 0.75,3.21 0.45,0.85 1.05,1.48 1.79,1.89 0.74,0.4 1.57,0.61 2.48,0.61 0.84,0 1.62,-0.13 2.33,-0.38 0.71,-0.25 1.46,-0.64 2.24,-1.17l1.29 1.8c-0.8,0.64 -1.73,1.13 -2.76,1.49 -1.03,0.36 -2.08,0.54 -3.14,0.54 -1.64,0 -3.05,-0.37 -4.23,-1.11 -1.18,-0.74 -2.08,-1.78 -2.7,-3.13 -0.61,-1.35 -0.92,-2.91 -0.92,-4.69 0,-1.73 0.32,-3.27 0.93,-4.62 0.62,-1.36 1.49,-2.42 2.63,-3.19 1.12,-0.76 2.44,-1.15 3.93,-1.15 1.44,0 2.68,0.34 3.73,1.01 1.05,0.67 1.85,1.64 2.41,2.91 0.56,1.26 0.84,2.76 0.84,4.49 0,0.49 -0.03,1 -0.07,1.49l-11.53 0zm4.66 -7.65c-1.33,0 -2.4,0.47 -3.23,1.39 -0.83,0.93 -1.3,2.31 -1.41,4.15l8.94 0c-0.03,-1.8 -0.43,-3.18 -1.19,-4.12 -0.76,-0.95 -1.8,-1.42 -3.11,-1.42z"/>
    <polygon id="6" class="fil2" points="490.71,508 497.04,498.94 491.48,490.85 494.73,490.85 498.7,497.24 502.72,490.85 505.85,490.85 500.31,498.83 506.63,508 503.28,508 498.59,500.64 493.83,508 "/>
    <path id="7" class="fil2" d="M523.37 507.14c-0.57,0.38 -1.28,0.68 -2.12,0.9 -0.85,0.23 -1.67,0.34 -2.47,0.34 -1.21,0 -2.24,-0.23 -3.1,-0.66 -0.87,-0.44 -1.53,-1.05 -1.98,-1.84 -0.46,-0.78 -0.69,-1.67 -0.69,-2.68l0 -10.23 -3.94 0 0 -2.12 3.94 0 0 -3.89 2.74 -0.33 0 4.22 5.93 0 -0.33 2.12 -5.6 0 0 10.19c0,0.98 0.26,1.71 0.77,2.2 0.52,0.49 1.35,0.74 2.5,0.74 1.17,0 2.26,-0.27 3.29,-0.82l1.06 1.86z"/>
    <path id="8" class="fil2" d="M538.92 490.48c0.45,0 0.86,0.03 1.23,0.09 0.37,0.05 0.77,0.15 1.2,0.28l-0.39 5.8 -2.25 0 0 -3.65 -0.15 0c-1.32,0 -2.45,0.47 -3.38,1.4 -0.94,0.93 -1.69,2.35 -2.26,4.24l0 7.26 3.48 0 0 2.1 -8.89 0 0 -2.1 2.67 0 0 -12.95 -2.67 0 0 -2.1 4.75 0 0.51 4.06c0.69,-1.49 1.52,-2.6 2.48,-3.33 0.96,-0.74 2.19,-1.1 3.67,-1.1z"/>
    <path id="9" class="fil2" d="M557.22 504.25c0,0.68 0.1,1.17 0.32,1.5 0.22,0.31 0.58,0.55 1.07,0.7l-0.66 1.93c-1.66,-0.22 -2.7,-1.03 -3.15,-2.42 -0.61,0.8 -1.37,1.39 -2.3,1.8 -0.93,0.41 -1.95,0.62 -3.07,0.62 -1.13,0 -2.11,-0.22 -2.95,-0.65 -0.83,-0.44 -1.48,-1.06 -1.92,-1.86 -0.45,-0.79 -0.67,-1.72 -0.67,-2.79 0,-1.77 0.69,-3.12 2.07,-4.07 1.38,-0.94 3.37,-1.42 5.98,-1.42l2.52 0 0 -1.43c0,-1.2 -0.35,-2.06 -1.04,-2.6 -0.7,-0.53 -1.71,-0.8 -3.05,-0.8 -1.29,0 -2.78,0.29 -4.46,0.88l-0.71 -2.07c1.91,-0.72 3.77,-1.08 5.59,-1.08 2.1,0 3.69,0.49 4.78,1.48 1.09,0.98 1.65,2.33 1.65,4.06l0 8.22zm-7.09 2.04c0.84,0 1.65,-0.22 2.42,-0.64 0.76,-0.43 1.4,-1.03 1.91,-1.79l0 -4.41 -2.47 0c-1.82,0 -3.13,0.31 -3.95,0.93 -0.81,0.62 -1.22,1.51 -1.22,2.67 0,2.16 1.11,3.24 3.31,3.24z"/>
    <path id="10" class="fil2" d="M570.27 506.02c1.53,0 3.02,-0.51 4.46,-1.51l1.34 1.8c-0.75,0.63 -1.65,1.13 -2.7,1.51 -1.05,0.37 -2.09,0.56 -3.1,0.56 -1.68,0 -3.13,-0.37 -4.34,-1.09 -1.21,-0.73 -2.13,-1.77 -2.76,-3.1 -0.63,-1.33 -0.94,-2.9 -0.94,-4.69 0,-1.72 0.32,-3.27 0.96,-4.64 0.64,-1.36 1.57,-2.43 2.78,-3.2 1.22,-0.78 2.66,-1.17 4.33,-1.17 2.19,0 4.1,0.66 5.74,1.99l-1.34 1.82c-1.47,-1.02 -2.95,-1.53 -4.43,-1.53 -1.01,0 -1.89,0.25 -2.65,0.75 -0.76,0.5 -1.36,1.26 -1.78,2.26 -0.43,1.02 -0.65,2.25 -0.65,3.72 0,2.19 0.46,3.83 1.38,4.9 0.91,1.08 2.15,1.62 3.7,1.62z"/>
    <path id="11" class="fil2" d="M593.72 507.14c-0.57,0.38 -1.28,0.68 -2.12,0.9 -0.84,0.23 -1.66,0.34 -2.47,0.34 -1.21,0 -2.24,-0.23 -3.1,-0.66 -0.86,-0.44 -1.53,-1.05 -1.98,-1.84 -0.46,-0.78 -0.68,-1.67 -0.68,-2.68l0 -10.23 -3.95 0 0 -2.12 3.95 0 0 -3.89 2.73 -0.33 0 4.22 5.93 0 -0.33 2.12 -5.6 0 0 10.19c0,0.98 0.26,1.71 0.78,2.2 0.51,0.49 1.35,0.74 2.49,0.74 1.17,0 2.26,-0.27 3.3,-0.82l1.05 1.86z"/>
    <path id="12" class="fil2" d="M604.19 482.82c0.6,0 1.08,0.18 1.45,0.55 0.37,0.36 0.56,0.81 0.56,1.36 0,0.56 -0.19,1.03 -0.56,1.4 -0.37,0.37 -0.85,0.55 -1.45,0.55 -0.57,0 -1.04,-0.18 -1.41,-0.56 -0.37,-0.38 -0.56,-0.84 -0.56,-1.39 0,-0.55 0.19,-1 0.56,-1.36 0.37,-0.37 0.84,-0.55 1.41,-0.55zm2.18 23.02l4.84 0 0 2.16 -12.86 0 0 -2.16 5.29 0 0 -12.82 -5.13 0 0 -2.17 7.86 0 0 14.99z"/>
    <path id="13" class="fil2" d="M621.81 490.49c1.59,0 2.93,0.37 4.03,1.09 1.09,0.72 1.92,1.75 2.48,3.09 0.56,1.34 0.84,2.92 0.84,4.75 0,1.77 -0.29,3.33 -0.86,4.68 -0.56,1.34 -1.41,2.39 -2.51,3.14 -1.11,0.76 -2.44,1.14 -4.01,1.14 -1.58,0 -2.93,-0.37 -4.03,-1.1 -1.1,-0.73 -1.93,-1.77 -2.5,-3.11 -0.56,-1.33 -0.85,-2.91 -0.85,-4.72 0,-1.78 0.29,-3.34 0.86,-4.69 0.57,-1.35 1.41,-2.39 2.52,-3.14 1.12,-0.75 2.46,-1.13 4.03,-1.13zm0 2.23c-1.48,0 -2.6,0.56 -3.35,1.66 -0.75,1.1 -1.13,2.79 -1.13,5.07 0,2.25 0.38,3.92 1.11,5.03 0.74,1.1 1.85,1.65 3.34,1.65 1.49,0 2.6,-0.55 3.34,-1.65 0.74,-1.11 1.11,-2.79 1.11,-5.06 0,-2.26 -0.37,-3.94 -1.11,-5.04 -0.74,-1.1 -1.84,-1.66 -3.31,-1.66z"/>
    <path id="14" class="fil2" d="M632.87 490.85l2.33 0 0.21 2.38c0.69,-0.86 1.55,-1.53 2.58,-2.01 1.04,-0.49 2.07,-0.73 3.09,-0.73 1.64,0 2.85,0.44 3.64,1.3 0.79,0.88 1.18,2.12 1.18,3.75l0 12.46 -2.74 0 0 -10.44c0,-1.28 -0.06,-2.26 -0.2,-2.93 -0.13,-0.67 -0.41,-1.17 -0.83,-1.5 -0.42,-0.33 -1.05,-0.49 -1.9,-0.49 -0.92,0 -1.79,0.29 -2.61,0.86 -0.82,0.57 -1.49,1.24 -2.01,2.01l0 12.49 -2.74 0 0 -17.15z"/>
   </g>
   <g>
    <g>
     <g>
      <g>
       <g>
        <g>
         <path class="fil3" d="M824.05 377.57l-1.51 -1.51 12.72 -12.72c0.41,-0.41 1.09,-0.41 1.5,0l7.38 7.38 18.33 -18.34c0.42,-0.42 1.1,-0.42 1.51,0l16 16 -1.51 1.51 -15.24 -15.25 -18.34 18.34c-0.42,0.42 -1.09,0.42 -1.51,0l-7.37 -7.37 -11.96 11.96z"/>
         <path class="fil4" d="M825.92 344.48l50.68 0c2.2,0 4,1.8 4,4l0 32.02c0,2.2 -1.8,4 -4,4l-50.68 0c-2.21,0 -4.01,-1.8 -4.01,-4l0 -32.02c0,-2.2 1.8,-4 4.01,-4zm50.68 2.14l-50.68 0c-1.03,0 -1.87,0.84 -1.87,1.86l0 32.02c0,1.02 0.84,1.87 1.87,1.87l50.68 0c1.03,0 1.87,-0.84 1.87,-1.87l0 -32.02c0,-1.03 -0.84,-1.86 -1.87,-1.86z"/>
        </g>
        <path class="fil1" d="M891.28 320.47l0 66.7c0,4.4 -3.61,8 -8.01,8l-64.02 0c-4.41,0 -8.01,-3.6 -8.01,-8l0 -90.71c0,-4.4 3.6,-8 8.01,-8l40.01 0 32.02 32.01zm-2.14 2.14l-21.87 0c-5.57,0 -10.14,-4.57 -10.14,-10.14l0 -21.87 -37.88 0c-3.24,0 -5.87,2.63 -5.87,5.86l0 90.71c0,3.23 2.63,5.87 5.87,5.87l64.02 0c3.23,0 5.87,-2.64 5.87,-5.87l0 -64.56zm-0.88 -2.14l-20.99 0c-4.41,0 -8.01,-3.6 -8.01,-8l0 -20.99 29 28.99z"/>
       </g>
       <g>
        <g>
         <path class="fil3" d="M916.78 377.57l-1.5 -1.51 12.71 -12.72c0.42,-0.41 1.09,-0.41 1.51,0l7.37 7.38 18.34 -18.34c0.41,-0.42 1.09,-0.42 1.51,0l15.99 16 -1.5 1.51 -15.25 -15.25 -18.33 18.34c-0.42,0.42 -1.1,0.42 -1.51,0l-7.38 -7.37 -11.96 11.96z"/>
         <path class="fil4" d="M918.65 344.48l50.69 0c2.2,0 4,1.8 4,4l0 32.02c0,2.2 -1.8,4 -4,4l-50.69 0c-2.2,0 -4,-1.8 -4,-4l0 -32.02c0,-2.2 1.8,-4 4,-4zm50.69 2.14l-50.69 0c-1.02,0 -1.87,0.84 -1.87,1.86l0 32.02c0,1.02 0.85,1.87 1.87,1.87l50.69 0c1.03,0 1.87,-0.84 1.87,-1.87l0 -32.02c0,-1.03 -0.84,-1.86 -1.87,-1.86z"/>
        </g>
        <path class="fil1" d="M984.01 320.47l0 66.7c0,4.4 -3.6,8 -8,8l-64.03 0c-4.4,0 -8,-3.6 -8,-8l0 -90.71c0,-4.4 3.6,-8 8,-8l40.02 0 32.01 32.01zm-2.13 2.14l-21.88 0c-5.57,0 -10.14,-4.57 -10.14,-10.14l0 -21.87 -37.88 0c-3.23,0 -5.87,2.63 -5.87,5.86l0 90.71c0,3.23 2.64,5.87 5.87,5.87l64.03 0c3.23,0 5.87,-2.64 5.87,-5.87l0 -64.56zm-0.89 -2.14l-20.99 0c-4.4,0 -8,-3.6 -8,-8l0 -20.99 28.99 28.99z"/>
       </g>
       <g>
        <g>
         <path class="fil3" d="M1009.52 377.57l-1.51 -1.51 12.72 -12.72c0.41,-0.41 1.09,-0.41 1.5,0l7.38 7.38 18.33 -18.34c0.42,-0.42 1.1,-0.42 1.51,0l16 16 -1.51 1.51 -15.24 -15.25 -18.34 18.34c-0.42,0.42 -1.09,0.42 -1.51,0l-7.37 -7.37 -11.96 11.96z"/>
         <path class="fil4" d="M1011.39 344.48l50.68 0c2.2,0 4,1.8 4,4l0 32.02c0,2.2 -1.8,4 -4,4l-50.68 0c-2.21,0 -4.01,-1.8 -4.01,-4l0 -32.02c0,-2.2 1.8,-4 4.01,-4zm50.68 2.14l-50.68 0c-1.03,0 -1.87,0.84 -1.87,1.86l0 32.02c0,1.02 0.84,1.87 1.87,1.87l50.68 0c1.03,0 1.87,-0.84 1.87,-1.87l0 -32.02c0,-1.03 -0.83,-1.86 -1.87,-1.86z"/>
        </g>
        <path class="fil1" d="M1076.75 320.47l0 66.7c0,4.4 -3.6,8 -8.01,8l-64.02 0c-4.41,0 -8.01,-3.6 -8.01,-8l0 -90.71c0,-4.4 3.6,-8 8.01,-8l40.01 0 32.02 32.01zm-2.14 2.14l-21.87 0c-5.57,0 -10.14,-4.57 -10.14,-10.14l0 -21.87 -37.88 0c-3.24,0 -5.87,2.63 -5.87,5.86l0 90.71c0,3.23 2.63,5.87 5.87,5.87l64.02 0c3.24,0 5.87,-2.64 5.87,-5.87l0 -64.56zm-0.88 -2.14l-20.99 0c-4.41,0 -8.01,-3.6 -8.01,-8l0 -20.99 29 28.99z"/>
       </g>
       <g>
        <g>
         <path class="fil3" d="M1102.25 377.57l-1.5 -1.51 12.71 -12.72c0.42,-0.41 1.09,-0.41 1.51,0l7.37 7.38 18.34 -18.34c0.42,-0.42 1.09,-0.42 1.51,0l15.99 16 -1.5 1.51 -15.25 -15.25 -18.33 18.34c-0.42,0.42 -1.1,0.42 -1.51,0l-7.37 -7.37 -11.97 11.96z"/>
         <path class="fil4" d="M1104.12 344.48l50.69 0c2.2,0 4,1.8 4,4l0 32.02c0,2.2 -1.8,4 -4,4l-50.69 0c-2.2,0 -4,-1.8 -4,-4l0 -32.02c0,-2.2 1.8,-4 4,-4zm50.69 2.14l-50.69 0c-1.02,0 -1.87,0.84 -1.87,1.86l0 32.02c0,1.02 0.85,1.87 1.87,1.87l50.69 0c1.03,0 1.87,-0.84 1.87,-1.87l0 -32.02c0,-1.03 -0.84,-1.86 -1.87,-1.86z"/>
        </g>
        <path class="fil1" d="M1169.48 320.47l0 66.7c0,4.4 -3.6,8 -8,8l-64.03 0c-4.4,0 -8,-3.6 -8,-8l0 -90.71c0,-4.4 3.6,-8 8,-8l40.02 0 32.01 32.01zm-2.13 2.14l-21.88 0c-5.57,0 -10.14,-4.57 -10.14,-10.14l0 -21.87 -37.88 0c-3.23,0 -5.87,2.63 -5.87,5.86l0 90.71c0,3.23 2.64,5.87 5.87,5.87l64.03 0c3.23,0 5.87,-2.64 5.87,-5.87l0 -64.56zm-0.89 -2.14l-20.99 0c-4.4,0 -8,-3.6 -8,-8l0 -20.99 28.99 28.99z"/>
       </g>
       <g>
        <g>
         <path class="fil3" d="M1194.99 377.57l-1.51 -1.51 12.72 -12.72c0.41,-0.41 1.09,-0.41 1.5,0l7.38 7.38 18.33 -18.34c0.42,-0.42 1.1,-0.42 1.51,0l16 16 -1.51 1.51 -15.24 -15.25 -18.34 18.34c-0.42,0.42 -1.09,0.42 -1.51,0l-7.37 -7.37 -11.96 11.96z"/>
         <path class="fil4" d="M1196.86 344.48l50.68 0c2.2,0 4.01,1.8 4.01,4l0 32.02c0,2.2 -1.81,4 -4.01,4l-50.68 0c-2.2,0 -4,-1.8 -4,-4l0 -32.02c0,-2.2 1.8,-4 4,-4zm50.68 2.14l-50.68 0c-1.03,0 -1.87,0.84 -1.87,1.86l0 32.02c0,1.02 0.84,1.87 1.87,1.87l50.68 0c1.03,0 1.87,-0.84 1.87,-1.87l0 -32.02c0,-1.03 -0.83,-1.86 -1.87,-1.86z"/>
        </g>
        <path class="fil1" d="M1262.22 320.47l0 66.7c0,4.4 -3.61,8 -8.01,8l-64.02 0c-4.4,0 -8.01,-3.6 -8.01,-8l0 -90.71c0,-4.4 3.61,-8 8.01,-8l40.01 0 32.02 32.01zm-2.14 2.14l-21.87 0c-5.57,0 -10.14,-4.57 -10.14,-10.14l0 -21.87 -37.88 0c-3.24,0 -5.87,2.63 -5.87,5.86l0 90.71c0,3.23 2.63,5.87 5.87,5.87l64.02 0c3.24,0 5.87,-2.64 5.87,-5.87l0 -64.56zm-0.88 -2.14l-20.99 0c-4.41,0 -8.01,-3.6 -8.01,-8l0 -20.99 29 28.99z"/>
       </g>
      </g>
      <g>
       <g>
        <g>
         <path class="fil3" d="M824.05 258.16l-1.51 -1.51 12.72 -12.72c0.41,-0.41 1.09,-0.41 1.5,0l7.38 7.37 18.33 -18.33c0.42,-0.42 1.1,-0.42 1.51,0l16 15.99 -1.51 1.51 -15.24 -15.24 -18.34 18.34c-0.42,0.41 -1.09,0.41 -1.51,0l-7.37 -7.38 -11.96 11.97z"/>
         <path class="fil4" d="M825.92 225.07l50.68 0c2.2,0 4,1.8 4,4l0 32.02c0,2.2 -1.8,4 -4,4l-50.68 0c-2.21,0 -4.01,-1.8 -4.01,-4l0 -32.02c0,-2.2 1.8,-4 4.01,-4zm50.68 2.14l-50.68 0c-1.03,0 -1.87,0.83 -1.87,1.86l0 32.02c0,1.02 0.84,1.86 1.87,1.86l50.68 0c1.03,0 1.87,-0.84 1.87,-1.86l0 -32.02c0,-1.03 -0.84,-1.86 -1.87,-1.86z"/>
        </g>
        <path class="fil1" d="M891.28 201.06l0 66.7c0,4.4 -3.61,8 -8.01,8l-64.02 0c-4.41,0 -8.01,-3.6 -8.01,-8l0 -90.71c0,-4.4 3.6,-8 8.01,-8l40.01 0 32.02 32.01zm-2.14 2.13l-21.87 0c-5.57,0 -10.14,-4.56 -10.14,-10.13l0 -21.88 -37.88 0c-3.24,0 -5.87,2.64 -5.87,5.87l0 90.71c0,3.23 2.63,5.86 5.87,5.86l64.02 0c3.23,0 5.87,-2.63 5.87,-5.86l0 -64.57zm-0.88 -2.13l-20.99 0c-4.41,0 -8.01,-3.6 -8.01,-8l0 -20.99 29 28.99z"/>
       </g>
       <g>
        <g>
         <path class="fil3" d="M916.78 258.16l-1.5 -1.51 12.71 -12.72c0.42,-0.41 1.09,-0.41 1.51,0l7.37 7.37 18.34 -18.33c0.41,-0.42 1.09,-0.42 1.51,0l15.99 15.99 -1.5 1.51 -15.25 -15.24 -18.33 18.34c-0.42,0.41 -1.1,0.41 -1.51,0l-7.38 -7.38 -11.96 11.97z"/>
         <path class="fil4" d="M918.65 225.07l50.69 0c2.2,0 4,1.8 4,4l0 32.02c0,2.2 -1.8,4 -4,4l-50.69 0c-2.2,0 -4,-1.8 -4,-4l0 -32.02c0,-2.2 1.8,-4 4,-4zm50.69 2.14l-50.69 0c-1.02,0 -1.87,0.83 -1.87,1.86l0 32.02c0,1.02 0.85,1.86 1.87,1.86l50.69 0c1.03,0 1.87,-0.84 1.87,-1.86l0 -32.02c0,-1.03 -0.84,-1.86 -1.87,-1.86z"/>
        </g>
        <path class="fil1" d="M984.01 201.06l0 66.7c0,4.4 -3.6,8 -8,8l-64.03 0c-4.4,0 -8,-3.6 -8,-8l0 -90.71c0,-4.4 3.6,-8 8,-8l40.02 0 32.01 32.01zm-2.13 2.13l-21.88 0c-5.57,0 -10.14,-4.56 -10.14,-10.13l0 -21.88 -37.88 0c-3.23,0 -5.87,2.64 -5.87,5.87l0 90.71c0,3.23 2.64,5.86 5.87,5.86l64.03 0c3.23,0 5.87,-2.63 5.87,-5.86l0 -64.57zm-0.89 -2.13l-20.99 0c-4.4,0 -8,-3.6 -8,-8l0 -20.99 28.99 28.99z"/>
       </g>
       <g>
        <g>
         <path class="fil3" d="M1009.52 258.16l-1.51 -1.51 12.72 -12.72c0.41,-0.41 1.09,-0.41 1.5,0l7.38 7.37 18.33 -18.33c0.42,-0.42 1.1,-0.42 1.51,0l16 15.99 -1.51 1.51 -15.24 -15.24 -18.34 18.34c-0.42,0.41 -1.09,0.41 -1.51,0l-7.37 -7.38 -11.96 11.97z"/>
         <path class="fil4" d="M1011.39 225.07l50.68 0c2.2,0 4,1.8 4,4l0 32.02c0,2.2 -1.8,4 -4,4l-50.68 0c-2.21,0 -4.01,-1.8 -4.01,-4l0 -32.02c0,-2.2 1.8,-4 4.01,-4zm50.68 2.14l-50.68 0c-1.03,0 -1.87,0.83 -1.87,1.86l0 32.02c0,1.02 0.84,1.86 1.87,1.86l50.68 0c1.03,0 1.87,-0.84 1.87,-1.86l0 -32.02c0,-1.03 -0.83,-1.86 -1.87,-1.86z"/>
        </g>
        <path class="fil1" d="M1076.75 201.06l0 66.7c0,4.4 -3.6,8 -8.01,8l-64.02 0c-4.41,0 -8.01,-3.6 -8.01,-8l0 -90.71c0,-4.4 3.6,-8 8.01,-8l40.01 0 32.02 32.01zm-2.14 2.13l-21.87 0c-5.57,0 -10.14,-4.56 -10.14,-10.13l0 -21.88 -37.88 0c-3.24,0 -5.87,2.64 -5.87,5.87l0 90.71c0,3.23 2.63,5.86 5.87,5.86l64.02 0c3.24,0 5.87,-2.63 5.87,-5.86l0 -64.57zm-0.88 -2.13l-20.99 0c-4.41,0 -8.01,-3.6 -8.01,-8l0 -20.99 29 28.99z"/>
       </g>
       <g>
        <g>
         <path class="fil3" d="M1102.25 258.16l-1.5 -1.51 12.71 -12.72c0.42,-0.41 1.09,-0.41 1.51,0l7.37 7.37 18.34 -18.33c0.42,-0.42 1.09,-0.42 1.51,0l15.99 15.99 -1.5 1.51 -15.25 -15.24 -18.33 18.34c-0.42,0.41 -1.1,0.41 -1.51,0l-7.37 -7.38 -11.97 11.97z"/>
         <path class="fil4" d="M1104.12 225.07l50.69 0c2.2,0 4,1.8 4,4l0 32.02c0,2.2 -1.8,4 -4,4l-50.69 0c-2.2,0 -4,-1.8 -4,-4l0 -32.02c0,-2.2 1.8,-4 4,-4zm50.69 2.14l-50.69 0c-1.02,0 -1.87,0.83 -1.87,1.86l0 32.02c0,1.02 0.85,1.86 1.87,1.86l50.69 0c1.03,0 1.87,-0.84 1.87,-1.86l0 -32.02c0,-1.03 -0.84,-1.86 -1.87,-1.86z"/>
        </g>
        <path class="fil1" d="M1169.48 201.06l0 66.7c0,4.4 -3.6,8 -8,8l-64.03 0c-4.4,0 -8,-3.6 -8,-8l0 -90.71c0,-4.4 3.6,-8 8,-8l40.02 0 32.01 32.01zm-2.13 2.13l-21.88 0c-5.57,0 -10.14,-4.56 -10.14,-10.13l0 -21.88 -37.88 0c-3.23,0 -5.87,2.64 -5.87,5.87l0 90.71c0,3.23 2.64,5.86 5.87,5.86l64.03 0c3.23,0 5.87,-2.63 5.87,-5.86l0 -64.57zm-0.89 -2.13l-20.99 0c-4.4,0 -8,-3.6 -8,-8l0 -20.99 28.99 28.99z"/>
       </g>
       <g>
        <g>
         <path class="fil3" d="M1194.99 258.16l-1.51 -1.51 12.72 -12.72c0.41,-0.41 1.09,-0.41 1.5,0l7.38 7.37 18.33 -18.33c0.42,-0.42 1.1,-0.42 1.51,0l16 15.99 -1.51 1.51 -15.24 -15.24 -18.34 18.34c-0.42,0.41 -1.09,0.41 -1.51,0l-7.37 -7.38 -11.96 11.97z"/>
         <path class="fil4" d="M1196.86 225.07l50.68 0c2.2,0 4.01,1.8 4.01,4l0 32.02c0,2.2 -1.81,4 -4.01,4l-50.68 0c-2.2,0 -4,-1.8 -4,-4l0 -32.02c0,-2.2 1.8,-4 4,-4zm50.68 2.14l-50.68 0c-1.03,0 -1.87,0.83 -1.87,1.86l0 32.02c0,1.02 0.84,1.86 1.87,1.86l50.68 0c1.03,0 1.87,-0.84 1.87,-1.86l0 -32.02c0,-1.03 -0.83,-1.86 -1.87,-1.86z"/>
        </g>
        <path class="fil1" d="M1262.22 201.06l0 66.7c0,4.4 -3.61,8 -8.01,8l-64.02 0c-4.4,0 -8.01,-3.6 -8.01,-8l0 -90.71c0,-4.4 3.61,-8 8.01,-8l40.01 0 32.02 32.01zm-2.14 2.13l-21.87 0c-5.57,0 -10.14,-4.56 -10.14,-10.13l0 -21.88 -37.88 0c-3.24,0 -5.87,2.64 -5.87,5.87l0 90.71c0,3.23 2.63,5.86 5.87,5.86l64.02 0c3.24,0 5.87,-2.63 5.87,-5.86l0 -64.57zm-0.88 -2.13l-20.99 0c-4.41,0 -8.01,-3.6 -8.01,-8l0 -20.99 29 28.99z"/>
       </g>
      </g>
      <g>
       <g>
        <g>
         <path class="fil3" d="M824.05 138.74l-1.51 -1.51 12.72 -12.71c0.41,-0.42 1.09,-0.42 1.5,0l7.38 7.37 18.33 -18.34c0.42,-0.41 1.1,-0.41 1.51,0l16 16 -1.51 1.51 -15.24 -15.24 -18.34 18.33c-0.42,0.42 -1.09,0.42 -1.51,0l-7.37 -7.37 -11.96 11.96z"/>
         <path class="fil4" d="M825.92 105.66l50.68 0c2.2,0 4,1.8 4,4l0 32.01c0,2.2 -1.8,4 -4,4l-50.68 0c-2.21,0 -4.01,-1.8 -4.01,-4l0 -32.01c0,-2.2 1.8,-4 4.01,-4zm50.68 2.13l-50.68 0c-1.03,0 -1.87,0.84 -1.87,1.87l0 32.01c0,1.03 0.84,1.87 1.87,1.87l50.68 0c1.03,0 1.87,-0.84 1.87,-1.87l0 -32.01c0,-1.03 -0.84,-1.87 -1.87,-1.87z"/>
        </g>
        <path class="fil1" d="M891.28 81.65l0 66.69c0,4.4 -3.61,8.01 -8.01,8.01l-64.02 0c-4.41,0 -8.01,-3.61 -8.01,-8.01l0 -90.7c0,-4.4 3.6,-8 8.01,-8l40.01 0 32.02 32.01zm-2.14 2.13l-21.87 0c-5.57,0 -10.14,-4.57 -10.14,-10.13l0 -21.88 -37.88 0c-3.24,0 -5.87,2.63 -5.87,5.87l0 90.7c0,3.24 2.63,5.87 5.87,5.87l64.02 0c3.23,0 5.87,-2.64 5.87,-5.87l0 -64.56zm-0.88 -2.13l-20.99 0c-4.41,0 -8.01,-3.6 -8.01,-8l0 -21 29 29z"/>
       </g>
       <g>
        <g>
         <path class="fil3" d="M916.78 138.74l-1.5 -1.51 12.71 -12.71c0.42,-0.42 1.09,-0.42 1.51,0l7.37 7.37 18.34 -18.34c0.41,-0.41 1.09,-0.41 1.51,0l15.99 16 -1.5 1.51 -15.25 -15.24 -18.33 18.33c-0.42,0.42 -1.1,0.42 -1.51,0l-7.38 -7.37 -11.96 11.96z"/>
         <path class="fil4" d="M918.65 105.66l50.69 0c2.2,0 4,1.8 4,4l0 32.01c0,2.2 -1.8,4 -4,4l-50.69 0c-2.2,0 -4,-1.8 -4,-4l0 -32.01c0,-2.2 1.8,-4 4,-4zm50.69 2.13l-50.69 0c-1.02,0 -1.87,0.84 -1.87,1.87l0 32.01c0,1.03 0.85,1.87 1.87,1.87l50.69 0c1.03,0 1.87,-0.84 1.87,-1.87l0 -32.01c0,-1.03 -0.84,-1.87 -1.87,-1.87z"/>
        </g>
        <path class="fil1" d="M984.01 81.65l0 66.69c0,4.4 -3.6,8.01 -8,8.01l-64.03 0c-4.4,0 -8,-3.61 -8,-8.01l0 -90.7c0,-4.4 3.6,-8 8,-8l40.02 0 32.01 32.01zm-2.13 2.13l-21.88 0c-5.57,0 -10.14,-4.57 -10.14,-10.13l0 -21.88 -37.88 0c-3.23,0 -5.87,2.63 -5.87,5.87l0 90.7c0,3.24 2.64,5.87 5.87,5.87l64.03 0c3.23,0 5.87,-2.64 5.87,-5.87l0 -64.56zm-0.89 -2.13l-20.99 0c-4.4,0 -8,-3.6 -8,-8l0 -21 28.99 29z"/>
       </g>
       <g>
        <g>
         <path class="fil3" d="M1009.52 138.74l-1.51 -1.51 12.72 -12.71c0.41,-0.42 1.09,-0.42 1.5,0l7.38 7.37 18.33 -18.34c0.42,-0.41 1.1,-0.41 1.51,0l16 16 -1.51 1.51 -15.24 -15.24 -18.34 18.33c-0.42,0.42 -1.09,0.42 -1.51,0l-7.37 -7.37 -11.96 11.96z"/>
         <path class="fil4" d="M1011.39 105.66l50.68 0c2.2,0 4,1.8 4,4l0 32.01c0,2.2 -1.8,4 -4,4l-50.68 0c-2.21,0 -4.01,-1.8 -4.01,-4l0 -32.01c0,-2.2 1.8,-4 4.01,-4zm50.68 2.13l-50.68 0c-1.03,0 -1.87,0.84 -1.87,1.87l0 32.01c0,1.03 0.84,1.87 1.87,1.87l50.68 0c1.03,0 1.87,-0.84 1.87,-1.87l0 -32.01c0,-1.03 -0.83,-1.87 -1.87,-1.87z"/>
        </g>
        <path class="fil1" d="M1076.75 81.65l0 66.69c0,4.4 -3.6,8.01 -8.01,8.01l-64.02 0c-4.41,0 -8.01,-3.61 -8.01,-8.01l0 -90.7c0,-4.4 3.6,-8 8.01,-8l40.01 0 32.02 32.01zm-2.14 2.13l-21.87 0c-5.57,0 -10.14,-4.57 -10.14,-10.13l0 -21.88 -37.88 0c-3.24,0 -5.87,2.63 -5.87,5.87l0 90.7c0,3.24 2.63,5.87 5.87,5.87l64.02 0c3.24,0 5.87,-2.64 5.87,-5.87l0 -64.56zm-0.88 -2.13l-20.99 0c-4.41,0 -8.01,-3.6 -8.01,-8l0 -21 29 29z"/>
       </g>
       <g>
        <g>
         <path class="fil3" d="M1102.25 138.74l-1.5 -1.51 12.71 -12.71c0.42,-0.42 1.09,-0.42 1.51,0l7.37 7.37 18.34 -18.34c0.42,-0.41 1.09,-0.41 1.51,0l15.99 16 -1.5 1.51 -15.25 -15.24 -18.33 18.33c-0.42,0.42 -1.1,0.42 -1.51,0l-7.37 -7.37 -11.97 11.96z"/>
         <path class="fil4" d="M1104.12 105.66l50.69 0c2.2,0 4,1.8 4,4l0 32.01c0,2.2 -1.8,4 -4,4l-50.69 0c-2.2,0 -4,-1.8 -4,-4l0 -32.01c0,-2.2 1.8,-4 4,-4zm50.69 2.13l-50.69 0c-1.02,0 -1.87,0.84 -1.87,1.87l0 32.01c0,1.03 0.85,1.87 1.87,1.87l50.69 0c1.03,0 1.87,-0.84 1.87,-1.87l0 -32.01c0,-1.03 -0.84,-1.87 -1.87,-1.87z"/>
        </g>
        <path class="fil1" d="M1169.48 81.65l0 66.69c0,4.4 -3.6,8.01 -8,8.01l-64.03 0c-4.4,0 -8,-3.61 -8,-8.01l0 -90.7c0,-4.4 3.6,-8 8,-8l40.02 0 32.01 32.01zm-2.13 2.13l-21.88 0c-5.57,0 -10.14,-4.57 -10.14,-10.13l0 -21.88 -37.88 0c-3.23,0 -5.87,2.63 -5.87,5.87l0 90.7c0,3.24 2.64,5.87 5.87,5.87l64.03 0c3.23,0 5.87,-2.64 5.87,-5.87l0 -64.56zm-0.89 -2.13l-20.99 0c-4.4,0 -8,-3.6 -8,-8l0 -21 28.99 29z"/>
       </g>
       <g>
        <g>
         <path class="fil3" d="M1194.99 138.74l-1.51 -1.51 12.72 -12.71c0.41,-0.42 1.09,-0.42 1.5,0l7.38 7.37 18.33 -18.34c0.42,-0.41 1.1,-0.41 1.51,0l16 16 -1.51 1.51 -15.24 -15.24 -18.34 18.33c-0.42,0.42 -1.09,0.42 -1.51,0l-7.37 -7.37 -11.96 11.96z"/>
         <path class="fil4" d="M1196.86 105.66l50.68 0c2.2,0 4.01,1.8 4.01,4l0 32.01c0,2.2 -1.81,4 -4.01,4l-50.68 0c-2.2,0 -4,-1.8 -4,-4l0 -32.01c0,-2.2 1.8,-4 4,-4zm50.68 2.13l-50.68 0c-1.03,0 -1.87,0.84 -1.87,1.87l0 32.01c0,1.03 0.84,1.87 1.87,1.87l50.68 0c1.03,0 1.87,-0.84 1.87,-1.87l0 -32.01c0,-1.03 -0.83,-1.87 -1.87,-1.87z"/>
        </g>
        <path class="fil1" d="M1262.22 81.65l0 66.69c0,4.4 -3.61,8.01 -8.01,8.01l-64.02 0c-4.4,0 -8.01,-3.61 -8.01,-8.01l0 -90.7c0,-4.4 3.61,-8 8.01,-8l40.01 0 32.02 32.01zm-2.14 2.13l-21.87 0c-5.57,0 -10.14,-4.57 -10.14,-10.13l0 -21.88 -37.88 0c-3.24,0 -5.87,2.63 -5.87,5.87l0 90.7c0,3.24 2.63,5.87 5.87,5.87l64.02 0c3.24,0 5.87,-2.64 5.87,-5.87l0 -64.56zm-0.88 -2.13l-20.99 0c-4.41,0 -8.01,-3.6 -8.01,-8l0 -21 29 29z"/>
       </g>
      </g>
     </g>
     <path class="fil5" d="M812.51 31.85l250.9 0 31.76 -31.76 165.78 0c10.48,0 19.05,8.58 19.05,19.06l0 374.75c0,10.48 -8.57,19.06 -19.05,19.06l-448.44 0c-10.48,0 -19.05,-8.58 -19.05,-19.06l0 -343c0,-10.48 8.57,-19.05 19.05,-19.05zm0 5.08c-7.68,0 -13.97,6.29 -13.97,13.97l0 343c0,7.68 6.28,13.97 13.97,13.97l448.44 0c7.67,0 13.97,-6.3 13.97,-13.97l0 -374.75c0,-7.69 -6.29,-13.98 -13.97,-13.98l-163.68 0 -31.76 31.76 -253 0z"/>
    </g>
    <polygon class="fil2" points="863.45,495.45 871.76,495.45 871.76,497.78 863.45,497.78 863.45,505.74 873.65,505.74 873.65,508 860.62,508 860.62,485.57 873.36,485.57 873.03,487.89 863.45,487.89 "/>
    <polygon id="1" class="fil2" points="875.93,508 882.26,498.94 876.71,490.85 879.95,490.85 883.92,497.24 887.94,490.85 891.07,490.85 885.53,498.83 891.86,508 888.5,508 883.81,500.64 879.05,508 "/>
    <path id="2" class="fil2" d="M908.59 507.14c-0.57,0.38 -1.28,0.68 -2.12,0.9 -0.84,0.23 -1.66,0.34 -2.47,0.34 -1.21,0 -2.24,-0.23 -3.1,-0.66 -0.86,-0.44 -1.52,-1.05 -1.98,-1.84 -0.46,-0.78 -0.68,-1.67 -0.68,-2.68l0 -10.23 -3.95 0 0 -2.12 3.95 0 0 -3.89 2.73 -0.33 0 4.22 5.93 0 -0.33 2.12 -5.6 0 0 10.19c0,0.98 0.26,1.71 0.78,2.2 0.51,0.49 1.35,0.74 2.49,0.74 1.17,0 2.26,-0.27 3.3,-0.82l1.05 1.86z"/>
    <path id="3" class="fil2" d="M924.15 490.48c0.44,0 0.85,0.03 1.22,0.09 0.37,0.05 0.77,0.15 1.2,0.28l-0.39 5.8 -2.25 0 0 -3.65 -0.15 0c-1.32,0 -2.45,0.47 -3.38,1.4 -0.93,0.93 -1.69,2.35 -2.26,4.24l0 7.26 3.48 0 0 2.1 -8.89 0 0 -2.1 2.67 0 0 -12.95 -2.67 0 0 -2.1 4.76 0 0.5 4.06c0.69,-1.49 1.52,-2.6 2.48,-3.33 0.97,-0.74 2.19,-1.1 3.68,-1.1z"/>
    <path id="4" class="fil2" d="M942.44 504.25c0,0.68 0.1,1.17 0.32,1.5 0.22,0.31 0.58,0.55 1.07,0.7l-0.66 1.93c-1.65,-0.22 -2.7,-1.03 -3.15,-2.42 -0.61,0.8 -1.37,1.39 -2.3,1.8 -0.93,0.41 -1.95,0.62 -3.07,0.62 -1.13,0 -2.11,-0.22 -2.95,-0.65 -0.83,-0.44 -1.47,-1.06 -1.92,-1.86 -0.44,-0.79 -0.67,-1.72 -0.67,-2.79 0,-1.77 0.69,-3.12 2.07,-4.07 1.38,-0.94 3.37,-1.42 5.98,-1.42l2.52 0 0 -1.43c0,-1.2 -0.34,-2.06 -1.04,-2.6 -0.7,-0.53 -1.71,-0.8 -3.05,-0.8 -1.29,0 -2.78,0.29 -4.46,0.88l-0.71 -2.07c1.91,-0.72 3.78,-1.08 5.6,-1.08 2.09,0 3.69,0.49 4.78,1.48 1.09,0.98 1.64,2.33 1.64,4.06l0 8.22zm-7.09 2.04c0.85,0 1.65,-0.22 2.42,-0.64 0.77,-0.43 1.4,-1.03 1.91,-1.79l0 -4.41 -2.47 0c-1.82,0 -3.13,0.31 -3.95,0.93 -0.81,0.62 -1.22,1.51 -1.22,2.67 0,2.16 1.11,3.24 3.31,3.24z"/>
    <path id="5" class="fil2" d="M955.49 506.02c1.53,0 3.02,-0.51 4.47,-1.51l1.34 1.8c-0.76,0.63 -1.66,1.13 -2.71,1.51 -1.05,0.37 -2.08,0.56 -3.1,0.56 -1.68,0 -3.12,-0.37 -4.34,-1.09 -1.21,-0.73 -2.13,-1.77 -2.75,-3.1 -0.63,-1.33 -0.95,-2.9 -0.95,-4.69 0,-1.72 0.32,-3.27 0.96,-4.64 0.64,-1.36 1.57,-2.43 2.79,-3.2 1.21,-0.78 2.65,-1.17 4.33,-1.17 2.18,0 4.09,0.66 5.73,1.99l-1.34 1.82c-1.47,-1.02 -2.95,-1.53 -4.43,-1.53 -1.01,0 -1.89,0.25 -2.65,0.75 -0.76,0.5 -1.35,1.26 -1.78,2.26 -0.43,1.02 -0.65,2.25 -0.65,3.72 0,2.19 0.46,3.83 1.38,4.9 0.91,1.08 2.15,1.62 3.7,1.62z"/>
    <path id="6" class="fil2" d="M978.95 507.14c-0.58,0.38 -1.29,0.68 -2.13,0.9 -0.84,0.23 -1.66,0.34 -2.47,0.34 -1.2,0 -2.24,-0.23 -3.1,-0.66 -0.86,-0.44 -1.52,-1.05 -1.98,-1.84 -0.45,-0.78 -0.68,-1.67 -0.68,-2.68l0 -10.23 -3.95 0 0 -2.12 3.95 0 0 -3.89 2.73 -0.33 0 4.22 5.93 0 -0.32 2.12 -5.61 0 0 10.19c0,0.98 0.26,1.71 0.78,2.2 0.51,0.49 1.35,0.74 2.5,0.74 1.16,0 2.26,-0.27 3.29,-0.82l1.06 1.86z"/>
    <path id="7" class="fil2" d="M985.07 500.39c0.04,1.29 0.29,2.36 0.75,3.21 0.45,0.85 1.05,1.48 1.79,1.89 0.74,0.4 1.56,0.61 2.47,0.61 0.85,0 1.63,-0.13 2.34,-0.38 0.71,-0.25 1.46,-0.64 2.24,-1.17l1.29 1.8c-0.81,0.64 -1.73,1.13 -2.77,1.49 -1.03,0.36 -2.08,0.54 -3.13,0.54 -1.64,0 -3.05,-0.37 -4.23,-1.11 -1.18,-0.74 -2.08,-1.78 -2.7,-3.13 -0.61,-1.35 -0.92,-2.91 -0.92,-4.69 0,-1.73 0.31,-3.27 0.93,-4.62 0.62,-1.36 1.49,-2.42 2.62,-3.19 1.13,-0.76 2.44,-1.15 3.94,-1.15 1.43,0 2.68,0.34 3.73,1.01 1.04,0.67 1.84,1.64 2.41,2.91 0.56,1.26 0.83,2.76 0.83,4.49 0,0.49 -0.02,1 -0.06,1.49l-11.53 0zm4.66 -7.65c-1.33,0 -2.41,0.47 -3.24,1.39 -0.83,0.93 -1.3,2.31 -1.4,4.15l8.94 0c-0.04,-1.8 -0.43,-3.18 -1.2,-4.12 -0.75,-0.95 -1.79,-1.42 -3.1,-1.42z"/>
    <path id="8" class="fil2" d="M1013.5 483.94l0 24.06 -2.39 0 -0.26 -2.26c-0.63,0.89 -1.36,1.55 -2.18,1.99 -0.83,0.43 -1.72,0.65 -2.69,0.65 -2.17,0 -3.8,-0.8 -4.89,-2.4 -1.1,-1.59 -1.64,-3.77 -1.64,-6.53 0,-1.73 0.26,-3.27 0.8,-4.62 0.54,-1.36 1.32,-2.42 2.33,-3.19 1.02,-0.76 2.22,-1.15 3.59,-1.15 0.98,0 1.84,0.17 2.6,0.51 0.76,0.33 1.42,0.84 2,1.51l0 -8.9 2.73 0.33zm-6.61 8.75c-1.44,0 -2.55,0.57 -3.32,1.7 -0.76,1.14 -1.14,2.82 -1.14,5.06 0,2.22 0.35,3.89 1.05,5.01 0.7,1.14 1.72,1.7 3.07,1.7 1.62,0 3.02,-0.9 4.22,-2.7l0 -8.57c-0.47,-0.69 -1.04,-1.23 -1.71,-1.62 -0.67,-0.39 -1.39,-0.58 -2.17,-0.58z"/>
    <path id="9" class="fil2" d="M1036.32 482.82c0.59,0 1.08,0.18 1.45,0.55 0.37,0.36 0.55,0.81 0.55,1.36 0,0.56 -0.18,1.03 -0.55,1.4 -0.37,0.37 -0.86,0.55 -1.45,0.55 -0.58,0 -1.05,-0.18 -1.42,-0.56 -0.37,-0.38 -0.55,-0.84 -0.55,-1.39 0,-0.55 0.18,-1 0.55,-1.36 0.37,-0.37 0.84,-0.55 1.42,-0.55zm2.18 23.02l4.84 0 0 2.16 -12.87 0 0 -2.16 5.3 0 0 -12.82 -5.14 0 0 -2.17 7.87 0 0 14.99z"/>
    <path id="10" class="fil2" d="M1058.71 490.49c0.98,0 1.77,0.34 2.39,1.02 0.62,0.68 0.93,1.92 0.93,3.72l0 12.77 -2.54 0 0 -12.33c0,-0.81 -0.03,-1.42 -0.08,-1.83 -0.05,-0.41 -0.17,-0.71 -0.36,-0.91 -0.18,-0.21 -0.48,-0.31 -0.88,-0.31 -1.12,0 -2.12,0.69 -3,2.06l0 13.32 -2.55 0 0 -12.33c0,-0.81 -0.03,-1.42 -0.08,-1.83 -0.06,-0.41 -0.18,-0.71 -0.36,-0.91 -0.19,-0.21 -0.48,-0.31 -0.88,-0.31 -1.12,0 -2.12,0.69 -3,2.06l0 13.32 -2.52 0 0 -17.15 2.15 0 0.16 1.99c0.52,-0.75 1.08,-1.33 1.66,-1.73 0.59,-0.41 1.28,-0.62 2.07,-0.62 1.62,0 2.66,0.76 3.11,2.27 0.51,-0.74 1.07,-1.31 1.65,-1.69 0.6,-0.38 1.31,-0.58 2.13,-0.58z"/>
    <path id="11" class="fil2" d="M1077.28 504.25c0,0.68 0.1,1.17 0.32,1.5 0.22,0.31 0.58,0.55 1.07,0.7l-0.66 1.93c-1.65,-0.22 -2.7,-1.03 -3.15,-2.42 -0.61,0.8 -1.37,1.39 -2.3,1.8 -0.93,0.41 -1.95,0.62 -3.07,0.62 -1.13,0 -2.11,-0.22 -2.95,-0.65 -0.83,-0.44 -1.47,-1.06 -1.92,-1.86 -0.44,-0.79 -0.67,-1.72 -0.67,-2.79 0,-1.77 0.69,-3.12 2.07,-4.07 1.38,-0.94 3.37,-1.42 5.98,-1.42l2.52 0 0 -1.43c0,-1.2 -0.35,-2.06 -1.04,-2.6 -0.7,-0.53 -1.71,-0.8 -3.05,-0.8 -1.29,0 -2.77,0.29 -4.46,0.88l-0.71 -2.07c1.91,-0.72 3.78,-1.08 5.6,-1.08 2.09,0 3.69,0.49 4.78,1.48 1.09,0.98 1.64,2.33 1.64,4.06l0 8.22zm-7.09 2.04c0.85,0 1.65,-0.22 2.42,-0.64 0.77,-0.43 1.4,-1.03 1.91,-1.79l0 -4.41 -2.47 0c-1.82,0 -3.13,0.31 -3.94,0.93 -0.82,0.62 -1.23,1.51 -1.23,2.67 0,2.16 1.11,3.24 3.31,3.24z"/>
    <path id="12" class="fil2" d="M1097.37 491.6c-0.67,0.2 -1.39,0.34 -2.16,0.41 -0.76,0.06 -1.72,0.1 -2.85,0.1 1.98,0.91 2.98,2.35 2.98,4.31 0,1.13 -0.26,2.14 -0.78,3.02 -0.52,0.89 -1.26,1.58 -2.23,2.07 -0.97,0.49 -2.12,0.74 -3.45,0.74 -0.56,0 -1.03,-0.02 -1.42,-0.07 -0.39,-0.05 -0.76,-0.13 -1.13,-0.26 -0.26,0.19 -0.48,0.43 -0.64,0.73 -0.17,0.3 -0.26,0.61 -0.26,0.94 0,0.44 0.18,0.79 0.52,1.05 0.35,0.25 0.94,0.38 1.78,0.38l3.09 0c1.13,0 2.16,0.2 3.09,0.61 0.93,0.41 1.65,0.97 2.18,1.68 0.53,0.71 0.79,1.5 0.79,2.37 0,1.68 -0.71,2.97 -2.13,3.87 -1.43,0.9 -3.44,1.36 -6.06,1.36 -1.8,0 -3.23,-0.19 -4.29,-0.56 -1.06,-0.37 -1.82,-0.93 -2.28,-1.68 -0.45,-0.76 -0.68,-1.73 -0.68,-2.93l2.48 0c0,0.71 0.13,1.27 0.39,1.69 0.27,0.42 0.75,0.73 1.44,0.94 0.69,0.2 1.66,0.3 2.92,0.3 1.87,0 3.25,-0.23 4.13,-0.69 0.87,-0.47 1.31,-1.18 1.31,-2.12 0,-0.79 -0.36,-1.4 -1.07,-1.83 -0.72,-0.42 -1.65,-0.63 -2.8,-0.63l-3.07 0c-0.94,0 -1.74,-0.15 -2.39,-0.44 -0.65,-0.29 -1.14,-0.68 -1.45,-1.18 -0.31,-0.48 -0.47,-1.02 -0.47,-1.61 0,-0.55 0.16,-1.09 0.49,-1.61 0.32,-0.52 0.79,-0.98 1.4,-1.38 -0.99,-0.53 -1.72,-1.17 -2.19,-1.94 -0.46,-0.77 -0.69,-1.7 -0.69,-2.8 0,-1.14 0.29,-2.16 0.87,-3.07 0.57,-0.91 1.38,-1.62 2.42,-2.13 1.04,-0.51 2.22,-0.76 3.54,-0.76 1.38,0 2.52,-0.06 3.43,-0.17 0.9,-0.12 1.65,-0.27 2.27,-0.47 0.61,-0.2 1.32,-0.46 2.12,-0.81l0.85 2.57zm-8.67 0.88c-1.33,0 -2.34,0.36 -3.01,1.08 -0.69,0.71 -1.03,1.67 -1.03,2.88 0,1.21 0.35,2.18 1.04,2.91 0.69,0.72 1.71,1.08 3.07,1.08 1.19,0 2.11,-0.35 2.76,-1.05 0.65,-0.7 0.97,-1.69 0.97,-2.96 0,-1.29 -0.32,-2.27 -0.96,-2.94 -0.64,-0.66 -1.59,-1 -2.84,-1z"/>
    <path id="13" class="fil2" d="M1102.32 500.39c0.04,1.29 0.29,2.36 0.75,3.21 0.45,0.85 1.05,1.48 1.79,1.89 0.74,0.4 1.56,0.61 2.47,0.61 0.85,0 1.63,-0.13 2.34,-0.38 0.71,-0.25 1.46,-0.64 2.24,-1.17l1.29 1.8c-0.81,0.64 -1.73,1.13 -2.76,1.49 -1.04,0.36 -2.09,0.54 -3.14,0.54 -1.64,0 -3.05,-0.37 -4.23,-1.11 -1.18,-0.74 -2.08,-1.78 -2.7,-3.13 -0.61,-1.35 -0.92,-2.91 -0.92,-4.69 0,-1.73 0.31,-3.27 0.93,-4.62 0.62,-1.36 1.49,-2.42 2.62,-3.19 1.13,-0.76 2.44,-1.15 3.94,-1.15 1.44,0 2.68,0.34 3.73,1.01 1.05,0.67 1.85,1.64 2.41,2.91 0.56,1.26 0.83,2.76 0.83,4.49 0,0.49 -0.02,1 -0.06,1.49l-11.53 0zm4.66 -7.65c-1.33,0 -2.4,0.47 -3.23,1.39 -0.84,0.93 -1.31,2.31 -1.41,4.15l8.94 0c-0.03,-1.8 -0.43,-3.18 -1.19,-4.12 -0.76,-0.95 -1.8,-1.42 -3.11,-1.42z"/>
    <path id="14" class="fil2" d="M1139.61 483.61c0.9,0 1.71,0.07 2.46,0.23 0.75,0.16 1.48,0.39 2.18,0.69l-0.87 2.04c-1.07,-0.48 -2.3,-0.72 -3.68,-0.72 -2.41,0 -3.6,0.95 -3.6,2.85l0 3.48 5.81 0 -0.29 2.15 -5.52 0 0 13.67 -2.74 0 0 -13.67 -4.09 0 0 -2.15 4.09 0 0 -3.41c0,-1.04 0.27,-1.94 0.82,-2.72 0.54,-0.78 1.28,-1.39 2.22,-1.81 0.95,-0.42 2.02,-0.63 3.21,-0.63z"/>
    <path id="15" class="fil2" d="M1153.57 482.82c0.6,0 1.08,0.18 1.45,0.55 0.37,0.36 0.55,0.81 0.55,1.36 0,0.56 -0.18,1.03 -0.55,1.4 -0.37,0.37 -0.85,0.55 -1.45,0.55 -0.58,0 -1.05,-0.18 -1.42,-0.56 -0.36,-0.38 -0.55,-0.84 -0.55,-1.39 0,-0.55 0.19,-1 0.55,-1.36 0.37,-0.37 0.84,-0.55 1.42,-0.55zm2.18 23.02l4.84 0 0 2.16 -12.87 0 0 -2.16 5.3 0 0 -12.82 -5.14 0 0 -2.17 7.87 0 0 14.99z"/>
    <path id="16" class="fil2" d="M1171.34 503.77c0,0.8 0.25,1.39 0.75,1.76 0.51,0.38 1.2,0.57 2.08,0.57 0.92,0 1.88,-0.21 2.88,-0.61l0.73 2.01c-0.51,0.26 -1.12,0.47 -1.82,0.63 -0.69,0.16 -1.44,0.25 -2.25,0.25 -1.01,0 -1.9,-0.19 -2.68,-0.58 -0.77,-0.38 -1.37,-0.92 -1.8,-1.64 -0.42,-0.72 -0.63,-1.56 -0.63,-2.54l0 -17.51 -5.26 0 0 -2.17 8 0 0 19.83z"/>
    <path id="17" class="fil2" d="M1184.4 500.39c0.04,1.29 0.29,2.36 0.74,3.21 0.46,0.85 1.06,1.48 1.8,1.89 0.74,0.4 1.56,0.61 2.47,0.61 0.85,0 1.63,-0.13 2.34,-0.38 0.71,-0.25 1.46,-0.64 2.24,-1.17l1.29 1.8c-0.81,0.64 -1.73,1.13 -2.77,1.49 -1.03,0.36 -2.08,0.54 -3.13,0.54 -1.64,0 -3.05,-0.37 -4.24,-1.11 -1.18,-0.74 -2.08,-1.78 -2.69,-3.13 -0.61,-1.35 -0.92,-2.91 -0.92,-4.69 0,-1.73 0.31,-3.27 0.93,-4.62 0.62,-1.36 1.49,-2.42 2.62,-3.19 1.13,-0.76 2.44,-1.15 3.94,-1.15 1.43,0 2.68,0.34 3.73,1.01 1.04,0.67 1.84,1.64 2.4,2.91 0.57,1.26 0.84,2.76 0.84,4.49 0,0.49 -0.02,1 -0.06,1.49l-11.53 0zm4.66 -7.65c-1.33,0 -2.41,0.47 -3.24,1.39 -0.83,0.93 -1.3,2.31 -1.41,4.15l8.94 0c-0.03,-1.8 -0.42,-3.18 -1.19,-4.12 -0.75,-0.95 -1.79,-1.42 -3.1,-1.42z"/>
    <path id="18" class="fil2" d="M1205.66 506.11c1.32,0 2.36,-0.24 3.12,-0.73 0.77,-0.49 1.15,-1.15 1.15,-1.99 0,-0.56 -0.1,-1.03 -0.3,-1.39 -0.2,-0.37 -0.6,-0.7 -1.19,-1 -0.59,-0.31 -1.48,-0.61 -2.66,-0.9 -1.32,-0.32 -2.39,-0.68 -3.22,-1.07 -0.83,-0.38 -1.47,-0.89 -1.93,-1.5 -0.46,-0.62 -0.7,-1.41 -0.7,-2.37 0,-0.94 0.27,-1.76 0.82,-2.47 0.54,-0.71 1.3,-1.25 2.28,-1.63 0.99,-0.38 2.13,-0.57 3.42,-0.57 1.29,0 2.45,0.18 3.49,0.51 1.04,0.35 1.94,0.81 2.73,1.38l-1.21 1.86c-0.71,-0.49 -1.47,-0.87 -2.25,-1.13 -0.79,-0.27 -1.7,-0.4 -2.73,-0.4 -1.29,0 -2.23,0.2 -2.83,0.59 -0.59,0.4 -0.89,0.95 -0.89,1.65 0,0.52 0.14,0.94 0.42,1.26 0.28,0.33 0.73,0.62 1.35,0.87 0.63,0.26 1.56,0.55 2.8,0.89 1.24,0.33 2.25,0.71 3.04,1.12 0.79,0.42 1.41,0.96 1.86,1.62 0.44,0.67 0.67,1.52 0.67,2.55 0,1.16 -0.34,2.13 -1.02,2.89 -0.67,0.77 -1.55,1.33 -2.64,1.69 -1.09,0.36 -2.28,0.54 -3.58,0.54 -2.69,0 -4.92,-0.78 -6.71,-2.32l1.57 -1.81c0.69,0.59 1.48,1.05 2.36,1.37 0.88,0.33 1.81,0.49 2.78,0.49z"/>
   </g>
   <g>
    <g>
     <g>
      <path class="fil6" d="M126.13 219.09l40.49 23.38c10.13,5.85 10.13,17.54 0,23.38l-40.49 23.38c-10.12,5.85 -20.25,0 -20.25,-11.69l0 -46.76c0,-11.69 10.13,-17.53 20.25,-11.69zm37.95 27.77l-40.49 -23.38 0 -0.01c-1.88,-1.08 -3.73,-1.59 -5.4,-1.59l0 -0.02c-1.28,0 -2.46,0.31 -3.46,0.89 -0.99,0.57 -1.84,1.43 -2.47,2.53 -0.82,1.42 -1.3,3.27 -1.3,5.5l-0.02 0 0 46.76 0.02 0c0,2.22 0.48,4.07 1.29,5.49 0.64,1.1 1.5,1.97 2.5,2.54l0 0.01c0.97,0.56 2.14,0.86 3.44,0.86 1.68,0 3.53,-0.51 5.42,-1.6l40.21 -23.21 0.26 -0.16c1.91,-1.11 3.28,-2.45 4.11,-3.89l0.01 0c0.62,-1.08 0.93,-2.25 0.93,-3.42 0,-1.09 -0.27,-2.19 -0.82,-3.22l-0.12 -0.19c-0.8,-1.39 -2.09,-2.69 -3.86,-3.75l-0.25 -0.14z"/>
      <path class="fil5" d="M132.88 184.29c38.59,0 69.87,31.29 69.87,69.87 0,38.59 -31.28,69.87 -69.87,69.87 -38.59,0 -69.87,-31.28 -69.87,-69.87 0,-38.58 31.28,-69.87 69.87,-69.87zm45.81 24.06c-11.72,-11.72 -27.92,-18.98 -45.81,-18.98 -17.89,0 -34.09,7.26 -45.81,18.98 -11.73,11.72 -18.98,27.92 -18.98,45.81 0,17.89 7.25,34.09 18.98,45.82 11.72,11.72 27.92,18.97 45.81,18.97 17.89,0 34.09,-7.25 45.81,-18.97 11.72,-11.73 18.98,-27.93 18.98,-45.82 0,-17.89 -7.26,-34.09 -18.98,-45.81z"/>
     </g>
     <path class="fil1" d="M228.16 171.59l0 158.79c0,10.48 -8.58,19.06 -19.06,19.06l-152.44 0c-10.48,0 -19.06,-8.58 -19.06,-19.06l0 -215.96c0,-10.48 8.58,-19.05 19.06,-19.05l95.27 0 76.23 76.22zm-5.09 5.08l-52.08 0c-13.26,0 -24.14,-10.88 -24.14,-24.14l0 -52.08 -90.19 0c-7.71,0 -13.98,6.27 -13.98,13.97l0 215.96c0,7.71 6.27,13.98 13.98,13.98l152.44 0c7.7,0 13.97,-6.28 13.97,-13.98l0 -153.71zm-2.1 -5.08l-49.98 0c-10.48,0 -19.06,-8.58 -19.06,-19.06l0 -49.98 69.04 69.04z"/>
    </g>
    <polygon class="fil2" points="12.84,487.84 7.85,487.84 7.85,505.74 12.84,505.74 12.84,508 0,508 0,505.74 4.98,505.74 4.98,487.84 0,487.84 0,485.57 12.84,485.57 "/>
    <path id="1" class="fil2" d="M17.5 490.85l2.33 0 0.21 2.38c0.69,-0.86 1.55,-1.53 2.59,-2.01 1.03,-0.49 2.06,-0.73 3.08,-0.73 1.64,0 2.85,0.44 3.64,1.3 0.79,0.88 1.18,2.12 1.18,3.75l0 12.46 -2.73 0 0 -10.44c0,-1.28 -0.07,-2.26 -0.2,-2.93 -0.14,-0.67 -0.42,-1.17 -0.84,-1.5 -0.41,-0.33 -1.05,-0.49 -1.9,-0.49 -0.92,0 -1.79,0.29 -2.61,0.86 -0.82,0.57 -1.49,1.24 -2.01,2.01l0 12.49 -2.74 0 0 -17.15z"/>
    <path id="2" class="fil2" d="M42.77 490.49c2.19,0 3.77,0.78 4.74,2.33 0.97,1.56 1.46,3.75 1.46,6.6 0,1.77 -0.24,3.33 -0.73,4.66 -0.49,1.34 -1.24,2.4 -2.23,3.15 -0.99,0.77 -2.21,1.15 -3.65,1.15 -1.89,0 -3.4,-0.66 -4.53,-1.99l0 8.17 -2.74 0.35 0 -24.06 2.33 0 0.23 2.39c0.63,-0.89 1.38,-1.57 2.26,-2.04 0.87,-0.47 1.82,-0.71 2.86,-0.71zm-0.66 2.2c-0.88,0 -1.68,0.26 -2.4,0.78 -0.72,0.53 -1.35,1.18 -1.88,1.98l0 8.5c0.46,0.67 1.02,1.2 1.7,1.57 0.68,0.38 1.42,0.58 2.22,0.58 1.44,0 2.51,-0.55 3.22,-1.65 0.71,-1.1 1.07,-2.78 1.07,-5.05 0,-2.26 -0.32,-3.94 -0.96,-5.04 -0.64,-1.12 -1.63,-1.67 -2.97,-1.67z"/>
    <path id="3" class="fil2" d="M55.42 503c0,1.12 0.23,1.93 0.69,2.43 0.46,0.51 1.19,0.76 2.19,0.76 0.9,0 1.78,-0.26 2.63,-0.78 0.85,-0.52 1.52,-1.17 2.01,-1.93l0 -12.63 2.74 0 0 17.15 -2.33 0 -0.23 -2.31c-0.66,0.85 -1.49,1.51 -2.47,1.98 -0.98,0.47 -1.99,0.71 -3.02,0.71 -1.64,0 -2.87,-0.44 -3.7,-1.32 -0.83,-0.87 -1.25,-2.11 -1.25,-3.73l0 -12.48 2.74 0 0 12.15z"/>
    <path id="4" class="fil2" d="M83.88 507.14c-0.57,0.38 -1.28,0.68 -2.12,0.9 -0.84,0.23 -1.66,0.34 -2.47,0.34 -1.21,0 -2.24,-0.23 -3.1,-0.66 -0.86,-0.44 -1.53,-1.05 -1.98,-1.84 -0.46,-0.78 -0.68,-1.67 -0.68,-2.68l0 -10.23 -3.95 0 0 -2.12 3.95 0 0 -3.89 2.73 -0.33 0 4.22 5.93 0 -0.33 2.12 -5.6 0 0 10.19c0,0.98 0.26,1.71 0.78,2.2 0.51,0.49 1.35,0.74 2.49,0.74 1.17,0 2.26,-0.27 3.3,-0.82l1.05 1.86z"/>
    <polygon id="5" class="fil2" points="107.65,508 104.47,508 98.28,490.85 101.18,490.85 106.15,505.51 111.05,490.85 113.88,490.85 "/>
    <path id="6" class="fil2" d="M123.67 482.82c0.6,0 1.08,0.18 1.45,0.55 0.37,0.36 0.55,0.81 0.55,1.36 0,0.56 -0.18,1.03 -0.55,1.4 -0.37,0.37 -0.85,0.55 -1.45,0.55 -0.58,0 -1.05,-0.18 -1.42,-0.56 -0.37,-0.38 -0.55,-0.84 -0.55,-1.39 0,-0.55 0.18,-1 0.55,-1.36 0.37,-0.37 0.84,-0.55 1.42,-0.55zm2.18 23.02l4.84 0 0 2.16 -12.87 0 0 -2.16 5.3 0 0 -12.82 -5.14 0 0 -2.17 7.87 0 0 14.99z"/>
    <path id="7" class="fil2" d="M147.75 483.94l0 24.06 -2.39 0 -0.26 -2.26c-0.63,0.89 -1.36,1.55 -2.18,1.99 -0.83,0.43 -1.72,0.65 -2.69,0.65 -2.17,0 -3.8,-0.8 -4.89,-2.4 -1.09,-1.59 -1.64,-3.77 -1.64,-6.53 0,-1.73 0.27,-3.27 0.81,-4.62 0.53,-1.36 1.31,-2.42 2.33,-3.19 1.01,-0.76 2.21,-1.15 3.58,-1.15 0.98,0 1.85,0.17 2.6,0.51 0.76,0.33 1.42,0.84 2,1.51l0 -8.9 2.73 0.33zm-6.61 8.75c-1.44,0 -2.55,0.57 -3.31,1.7 -0.77,1.14 -1.15,2.82 -1.15,5.06 0,2.22 0.35,3.89 1.05,5.01 0.7,1.14 1.73,1.7 3.07,1.7 1.62,0 3.02,-0.9 4.22,-2.7l0 -8.57c-0.47,-0.69 -1.03,-1.23 -1.71,-1.62 -0.66,-0.39 -1.39,-0.58 -2.17,-0.58z"/>
    <path id="8" class="fil2" d="M154.5 500.39c0.04,1.29 0.29,2.36 0.74,3.21 0.46,0.85 1.06,1.48 1.8,1.89 0.73,0.4 1.56,0.61 2.47,0.61 0.85,0 1.62,-0.13 2.34,-0.38 0.71,-0.25 1.46,-0.64 2.24,-1.17l1.28 1.8c-0.8,0.64 -1.72,1.13 -2.76,1.49 -1.03,0.36 -2.08,0.54 -3.13,0.54 -1.64,0 -3.05,-0.37 -4.24,-1.11 -1.18,-0.74 -2.08,-1.78 -2.69,-3.13 -0.62,-1.35 -0.92,-2.91 -0.92,-4.69 0,-1.73 0.31,-3.27 0.92,-4.62 0.62,-1.36 1.5,-2.42 2.63,-3.19 1.13,-0.76 2.44,-1.15 3.94,-1.15 1.43,0 2.68,0.34 3.72,1.01 1.05,0.67 1.85,1.64 2.41,2.91 0.56,1.26 0.84,2.76 0.84,4.49 0,0.49 -0.02,1 -0.06,1.49l-11.53 0zm4.65 -7.65c-1.32,0 -2.4,0.47 -3.23,1.39 -0.83,0.93 -1.3,2.31 -1.41,4.15l8.94 0c-0.03,-1.8 -0.43,-3.18 -1.19,-4.12 -0.75,-0.95 -1.79,-1.42 -3.11,-1.42z"/>
    <path id="9" class="fil2" d="M176.46 490.49c1.59,0 2.93,0.37 4.03,1.09 1.09,0.72 1.92,1.75 2.48,3.09 0.56,1.34 0.84,2.92 0.84,4.75 0,1.77 -0.29,3.33 -0.86,4.68 -0.56,1.34 -1.41,2.39 -2.51,3.14 -1.11,0.76 -2.44,1.14 -4.01,1.14 -1.58,0 -2.93,-0.37 -4.03,-1.1 -1.1,-0.73 -1.93,-1.77 -2.5,-3.11 -0.56,-1.33 -0.85,-2.91 -0.85,-4.72 0,-1.78 0.29,-3.34 0.86,-4.69 0.57,-1.35 1.41,-2.39 2.52,-3.14 1.12,-0.75 2.46,-1.13 4.03,-1.13zm0 2.23c-1.49,0 -2.6,0.56 -3.35,1.66 -0.75,1.1 -1.13,2.79 -1.13,5.07 0,2.25 0.37,3.92 1.11,5.03 0.74,1.1 1.85,1.65 3.34,1.65 1.49,0 2.6,-0.55 3.34,-1.65 0.74,-1.11 1.11,-2.79 1.11,-5.06 0,-2.26 -0.37,-3.94 -1.11,-5.04 -0.74,-1.1 -1.84,-1.66 -3.31,-1.66z"/>
    <path id="10" class="fil2" d="M209.38 483.61c0.89,0 1.71,0.07 2.46,0.23 0.74,0.16 1.47,0.39 2.18,0.69l-0.88 2.04c-1.06,-0.48 -2.29,-0.72 -3.68,-0.72 -2.4,0 -3.6,0.95 -3.6,2.85l0 3.48 5.81 0 -0.29 2.15 -5.52 0 0 13.67 -2.73 0 0 -13.67 -4.1 0 0 -2.15 4.1 0 0 -3.41c0,-1.04 0.26,-1.94 0.81,-2.72 0.54,-0.78 1.29,-1.39 2.23,-1.81 0.95,-0.42 2.01,-0.63 3.21,-0.63z"/>
    <path id="11" class="fil2" d="M223.33 482.82c0.6,0 1.08,0.18 1.45,0.55 0.37,0.36 0.56,0.81 0.56,1.36 0,0.56 -0.19,1.03 -0.56,1.4 -0.37,0.37 -0.85,0.55 -1.45,0.55 -0.58,0 -1.05,-0.18 -1.42,-0.56 -0.36,-0.38 -0.55,-0.84 -0.55,-1.39 0,-0.55 0.19,-1 0.55,-1.36 0.37,-0.37 0.84,-0.55 1.42,-0.55zm2.18 23.02l4.84 0 0 2.16 -12.86 0 0 -2.16 5.29 0 0 -12.82 -5.13 0 0 -2.17 7.86 0 0 14.99z"/>
    <path id="12" class="fil2" d="M241.1 503.77c0,0.8 0.25,1.39 0.76,1.76 0.5,0.38 1.19,0.57 2.07,0.57 0.93,0 1.89,-0.21 2.89,-0.61l0.73 2.01c-0.52,0.26 -1.13,0.47 -1.82,0.63 -0.7,0.16 -1.45,0.25 -2.25,0.25 -1.01,0 -1.9,-0.19 -2.68,-0.58 -0.78,-0.38 -1.38,-0.92 -1.8,-1.64 -0.42,-0.72 -0.64,-1.56 -0.64,-2.54l0 -17.51 -5.26 0 0 -2.17 8 0 0 19.83z"/>
    <path id="13" class="fil2" d="M254.16 500.39c0.04,1.29 0.29,2.36 0.75,3.21 0.45,0.85 1.05,1.48 1.79,1.89 0.74,0.4 1.56,0.61 2.48,0.61 0.84,0 1.62,-0.13 2.33,-0.38 0.71,-0.25 1.46,-0.64 2.24,-1.17l1.29 1.8c-0.8,0.64 -1.73,1.13 -2.76,1.49 -1.04,0.36 -2.08,0.54 -3.14,0.54 -1.64,0 -3.05,-0.37 -4.23,-1.11 -1.18,-0.74 -2.08,-1.78 -2.7,-3.13 -0.61,-1.35 -0.92,-2.91 -0.92,-4.69 0,-1.73 0.32,-3.27 0.93,-4.62 0.62,-1.36 1.49,-2.42 2.63,-3.19 1.12,-0.76 2.44,-1.15 3.93,-1.15 1.44,0 2.68,0.34 3.73,1.01 1.05,0.67 1.85,1.64 2.41,2.91 0.56,1.26 0.83,2.76 0.83,4.49 0,0.49 -0.02,1 -0.06,1.49l-11.53 0zm4.66 -7.65c-1.33,0 -2.4,0.47 -3.23,1.39 -0.84,0.93 -1.31,2.31 -1.41,4.15l8.94 0c-0.03,-1.8 -0.43,-3.18 -1.19,-4.12 -0.76,-0.95 -1.8,-1.42 -3.11,-1.42z"/>
   </g>
   <g>
    <g>
     <path class="fil7" d="M743.39 97.16c-2.36,-2.36 1.23,-5.95 3.59,-3.59l19.01 19.01c1.05,1 1.05,2.68 0,3.68l-19.01 19.01c-2.36,2.36 -5.95,-1.23 -3.59,-3.59l14.72 -14.72 -120.9 0c-1.41,0 -2.55,-1.14 -2.55,-2.54 0,-1.4 1.14,-2.54 2.55,-2.54l120.9 0 -14.72 -14.72z"/>
     <path class="fil7" d="M743.39 205.14c-2.36,-2.36 1.23,-5.95 3.59,-3.59l19.01 19.01c1.05,0.99 1.05,2.68 0,3.68l-19.01 19.01c-2.36,2.36 -5.95,-1.23 -3.59,-3.59l14.72 -14.72 -120.9 0c-1.41,0 -2.55,-1.14 -2.55,-2.54 0,-1.4 1.14,-2.54 2.55,-2.54l120.9 0 -14.72 -14.72z"/>
     <path class="fil7" d="M743.39 313.12c-2.36,-2.36 1.23,-5.96 3.59,-3.59l19.01 19.01c1.05,1 1.05,2.68 0,3.68l-19.01 19.01c-2.36,2.36 -5.95,-1.23 -3.59,-3.59l14.72 -14.72 -120.9 0c-1.41,0 -2.55,-1.14 -2.55,-2.54 0,-1.4 1.14,-2.54 2.55,-2.54l120.9 0 -14.72 -14.72z"/>
    </g>
    <g>
     <path class="fil7" d="M366.1 205.14c-2.36,-2.36 1.23,-5.95 3.59,-3.59l19.01 19.01c1.05,1 1.05,2.69 0,3.68l-19.01 19.01c-2.36,2.37 -5.95,-1.23 -3.59,-3.59l14.72 -14.72 -28.93 0 0.65 -3.7 -4.27 -1.38 32.55 0 -14.72 -14.72zm-69.61 19.8l-36.58 0c-1.4,0 -2.54,-1.14 -2.54,-2.54 0,-1.4 1.14,-2.54 2.54,-2.54l34.06 0 -0.51 2.9 4.44 1.43 -1.41 0.75z"/>
     <path class="fil6" d="M319.94 205.05c1.05,-0.19 2.09,-0.28 3.13,-0.28l1.7 -5.27 4.26 0.75 -0.2 5.54c0.98,0.36 1.93,0.8 2.84,1.33l4.11 -3.72 3.32 2.78 -2.95 4.7c0.67,0.79 1.27,1.64 1.8,2.56l5.42 -1.16 1.48 4.07 -4.9 2.59c0.19,1.05 0.28,2.09 0.28,3.13l5.27 1.7 -0.75 4.26 -5.54 -0.2c-0.36,0.98 -0.8,1.93 -1.33,2.84l3.72 4.11 -2.78 3.32 -4.7 -2.95c-0.79,0.67 -1.64,1.28 -2.56,1.8l1.16 5.42 -4.07 1.48 -2.59 -4.9c-1.05,0.19 -2.09,0.28 -3.13,0.28l-1.7 5.27 -4.26 -0.75 0.2 -5.54c-0.98,-0.36 -1.93,-0.8 -2.84,-1.33l-4.11 3.72 -3.32 -2.78 2.95 -4.7c-0.67,-0.79 -1.27,-1.64 -1.8,-2.56l-5.42 1.16 -1.48 -4.07 4.9 -2.59c-0.19,-1.05 -0.28,-2.09 -0.28,-3.13l-5.27 -1.7 0.75 -4.26 5.54 0.2c0.36,-0.98 0.8,-1.93 1.33,-2.84l-3.72 -4.11 2.78 -3.32 4.7 2.95c0.79,-0.67 1.64,-1.27 2.56,-1.8l-1.16 -5.42 4.07 -1.48 2.59 4.9zm0.24 9.21c4.28,-1.56 9,0.65 10.56,4.92 1.56,4.28 -0.65,9 -4.92,10.56 -4.28,1.56 -9,-0.65 -10.56,-4.92 -1.56,-4.28 0.65,-9 4.92,-10.56z"/>
    </g>
   </g>
  </g>
 </g>
</svg>
